G04 #@! TF.GenerationSoftware,KiCad,Pcbnew,10.0.6*
G04 #@! TF.CreationDate,2026-10-01T15:13:54-05:00*
G04 #@! TF.ProjectId,CREWLINE-PRIM-PCB-001,43524557-4c49-44e4-952d-5052494d2d50,V3.1-H1*
G04 #@! TF.SameCoordinates,Original*
G04 #@! TF.FileFunction,Soldermask,Top*
G04 #@! TF.FilePolarity,Negative*
%FSLAX46Y46*%
G04 Gerber Fmt 4.6, Leading zero omitted, Abs format (unit mm)*
G04 Created by KiCad (PCBNEW 10.0.6) date 2026-10-01 15:13:54*
%MOMM*%
%LPD*%
G01*
G04 APERTURE LIST*
G04 Aperture macros list*
%AMRoundRect*
0 Rectangle with rounded corners*
0 $1 Rounding radius*
0 $2 $3 $4 $5 $6 $7 $8 $9 X,Y pos of 4 corners*
0 Add a 4 corners polygon primitive as box body*
4,1,4,$2,$3,$4,$5,$6,$7,$8,$9,$2,$3,0*
0 Add four circle primitives for the rounded corners*
1,1,$1+$1,$2,$3*
1,1,$1+$1,$4,$5*
1,1,$1+$1,$6,$7*
1,1,$1+$1,$8,$9*
0 Add four rect primitives between the rounded corners*
20,1,$1+$1,$2,$3,$4,$5,0*
20,1,$1+$1,$4,$5,$6,$7,0*
20,1,$1+$1,$6,$7,$8,$9,0*
20,1,$1+$1,$8,$9,$2,$3,0*%
G04 Aperture macros list end*
%ADD10RoundRect,0.243750X0.243750X0.456250X-0.243750X0.456250X-0.243750X-0.456250X0.243750X-0.456250X0*%
%ADD11R,1.000000X0.700000*%
%ADD12RoundRect,0.250000X1.050000X1.050000X-1.050000X1.050000X-1.050000X-1.050000X1.050000X-1.050000X0*%
%ADD13C,2.600000*%
%ADD14RoundRect,0.243750X-0.243750X-0.456250X0.243750X-0.456250X0.243750X0.456250X-0.243750X0.456250X0*%
%ADD15C,1.270000*%
%ADD16RoundRect,0.250001X-0.499999X-0.759999X0.499999X-0.759999X0.499999X0.759999X-0.499999X0.759999X0*%
%ADD17O,1.500000X2.020000*%
%ADD18RoundRect,0.250000X0.262500X0.450000X-0.262500X0.450000X-0.262500X-0.450000X0.262500X-0.450000X0*%
%ADD19C,4.300000*%
%ADD20C,2.780000*%
%ADD21RoundRect,0.243750X-0.456250X0.243750X-0.456250X-0.243750X0.456250X-0.243750X0.456250X0.243750X0*%
%ADD22R,1.700000X1.700000*%
%ADD23C,1.700000*%
%ADD24RoundRect,0.150000X-0.587500X-0.150000X0.587500X-0.150000X0.587500X0.150000X-0.587500X0.150000X0*%
%ADD25R,0.700000X1.000000*%
%ADD26R,1.600000X3.000000*%
%ADD27R,5.800000X6.200000*%
%ADD28RoundRect,0.250000X0.450000X-0.262500X0.450000X0.262500X-0.450000X0.262500X-0.450000X-0.262500X0*%
%ADD29RoundRect,0.250000X-0.262500X-0.450000X0.262500X-0.450000X0.262500X0.450000X-0.262500X0.450000X0*%
%ADD30C,2.000000*%
%ADD31RoundRect,0.250000X-0.750000X-0.750000X0.750000X-0.750000X0.750000X0.750000X-0.750000X0.750000X0*%
%ADD32C,3.320000*%
%ADD33C,1.854000*%
%ADD34RoundRect,0.250000X-0.450000X0.262500X-0.450000X-0.262500X0.450000X-0.262500X0.450000X0.262500X0*%
%ADD35RoundRect,0.250001X-0.759999X0.499999X-0.759999X-0.499999X0.759999X-0.499999X0.759999X0.499999X0*%
%ADD36O,2.020000X1.500000*%
%ADD37RoundRect,0.250000X-1.000000X-0.900000X1.000000X-0.900000X1.000000X0.900000X-1.000000X0.900000X0*%
%ADD38C,3.800000*%
%ADD39O,1.200000X2.200000*%
%ADD40C,1.600000*%
%ADD41RoundRect,0.102000X-0.800000X-0.800000X0.800000X-0.800000X0.800000X0.800000X-0.800000X0.800000X0*%
%ADD42C,1.804000*%
%ADD43RoundRect,0.250000X-0.250000X-0.475000X0.250000X-0.475000X0.250000X0.475000X-0.250000X0.475000X0*%
%ADD44RoundRect,0.250000X0.250000X0.475000X-0.250000X0.475000X-0.250000X-0.475000X0.250000X-0.475000X0*%
G04 APERTURE END LIST*
D10*
X136677500Y-138780000D03*
X134802500Y-138780000D03*
D11*
X75210000Y-141080000D03*
X77550000Y-141080000D03*
D12*
X114500000Y-56500000D03*
D13*
X109420000Y-56500000D03*
X104340000Y-56500000D03*
X99260000Y-56500000D03*
X94180000Y-56500000D03*
X89100000Y-56500000D03*
X84020000Y-56500000D03*
X78940000Y-56500000D03*
X73860000Y-56500000D03*
X68780000Y-56500000D03*
D14*
X103330000Y-131000000D03*
X105205000Y-131000000D03*
D15*
X141000000Y-171040000D03*
X165000000Y-171040000D03*
D16*
X144000000Y-173000000D03*
D17*
X147000000Y-173000000D03*
X150000000Y-173000000D03*
X153000000Y-173000000D03*
X156000000Y-173000000D03*
X159000000Y-173000000D03*
X162000000Y-173000000D03*
D18*
X143362895Y-138780328D03*
X141537895Y-138780328D03*
X73292500Y-139080000D03*
X71467500Y-139080000D03*
D19*
X60000000Y-58000000D03*
D20*
X100500000Y-90000000D03*
X103900000Y-90000000D03*
X100500000Y-80080000D03*
X103900000Y-80080000D03*
D18*
X73325000Y-134000000D03*
X71500000Y-134000000D03*
D21*
X100562500Y-73062500D03*
X100562500Y-74937500D03*
D22*
X119500000Y-70000000D03*
D23*
X122040000Y-70000000D03*
X119500000Y-72540000D03*
X122040000Y-72540000D03*
X119500000Y-75080000D03*
X122040000Y-75080000D03*
X119500000Y-77620000D03*
X122040000Y-77620000D03*
X119500000Y-80160000D03*
X122040000Y-80160000D03*
X119500000Y-82700000D03*
X122040000Y-82700000D03*
D11*
X134507500Y-141780000D03*
X136847500Y-141780000D03*
D24*
X76625000Y-132137500D03*
X76625000Y-134037500D03*
X78500000Y-133087500D03*
D15*
X102000000Y-171040000D03*
X126000000Y-171040000D03*
D16*
X105000000Y-173000000D03*
D17*
X108000000Y-173000000D03*
X111000000Y-173000000D03*
X114000000Y-173000000D03*
X117000000Y-173000000D03*
X120000000Y-173000000D03*
X123000000Y-173000000D03*
D10*
X149387895Y-138780328D03*
X147512895Y-138780328D03*
D25*
X153911697Y-144743821D03*
X153911697Y-147083821D03*
D26*
X128220000Y-74000000D03*
D27*
X130500000Y-67160000D03*
D26*
X132780000Y-74000000D03*
D28*
X79500000Y-69700000D03*
X79500000Y-67875000D03*
D29*
X84737500Y-130000000D03*
X86562500Y-130000000D03*
D21*
X68500000Y-73125000D03*
X68500000Y-75000000D03*
D18*
X105912500Y-138822500D03*
X104087500Y-138822500D03*
X88497328Y-137975338D03*
X86672328Y-137975338D03*
D20*
X139080000Y-75960000D03*
X142480000Y-75960000D03*
X139080000Y-66040000D03*
X142480000Y-66040000D03*
D28*
X90500000Y-70000000D03*
X90500000Y-68175000D03*
D11*
X105500000Y-129000000D03*
X103160000Y-129000000D03*
D30*
X103189863Y-152661051D03*
X103189863Y-157741051D03*
X103189863Y-162821051D03*
X110809863Y-152661051D03*
X110809863Y-157741051D03*
X110809863Y-162821051D03*
D31*
X103189863Y-145041051D03*
D30*
X110809863Y-145041051D03*
D32*
X104500000Y-116500000D03*
D33*
X108300000Y-101300000D03*
X118500000Y-101300000D03*
D32*
X122300000Y-114000000D03*
D30*
X85120365Y-151919999D03*
X85120365Y-156999999D03*
X85120365Y-162079999D03*
X92740365Y-151919999D03*
X92740365Y-156999999D03*
X92740365Y-162079999D03*
D31*
X85120365Y-144299999D03*
D30*
X92740365Y-144299999D03*
D34*
X128500000Y-78175000D03*
X128500000Y-80000000D03*
D20*
X90500000Y-90000000D03*
X93900000Y-90000000D03*
X90500000Y-80080000D03*
X93900000Y-80080000D03*
X83500000Y-80000000D03*
X80100000Y-80000000D03*
X83500000Y-89920000D03*
X80100000Y-89920000D03*
X72500000Y-80000000D03*
X69100000Y-80000000D03*
X72500000Y-89920000D03*
X69100000Y-89920000D03*
D18*
X90000000Y-167080000D03*
X88175000Y-167080000D03*
D15*
X64460000Y-128000000D03*
X64460000Y-146000000D03*
D35*
X62500000Y-131000000D03*
D36*
X62500000Y-134000000D03*
X62500000Y-137000000D03*
X62500000Y-140000000D03*
X62500000Y-143000000D03*
D30*
X129000000Y-152620000D03*
X129000000Y-157700000D03*
X129000000Y-162780000D03*
X136620000Y-152620000D03*
X136620000Y-157700000D03*
X136620000Y-162780000D03*
D31*
X129000000Y-145000000D03*
D30*
X136620000Y-145000000D03*
D21*
X110500000Y-73125000D03*
X110500000Y-75000000D03*
X79500000Y-73000000D03*
X79500000Y-74875000D03*
D11*
X84670000Y-128000000D03*
X82330000Y-128000000D03*
D30*
X116380000Y-152620000D03*
X116380000Y-157700000D03*
X116380000Y-162780000D03*
X124000000Y-152620000D03*
X124000000Y-157700000D03*
X124000000Y-162780000D03*
D31*
X116380000Y-145000000D03*
D30*
X124000000Y-145000000D03*
D11*
X90330000Y-141080000D03*
X92670000Y-141080000D03*
D15*
X64289825Y-155331377D03*
X64289825Y-167331377D03*
D35*
X62329825Y-158331377D03*
D36*
X62329825Y-161331377D03*
X62329825Y-164331377D03*
D10*
X123584188Y-138756259D03*
X121709188Y-138756259D03*
D11*
X130017500Y-141921655D03*
X127677500Y-141921655D03*
D28*
X110500000Y-69912500D03*
X110500000Y-68087500D03*
D15*
X66580000Y-171040000D03*
X99580000Y-171040000D03*
D16*
X69580000Y-173000000D03*
D17*
X72580000Y-173000000D03*
X75580000Y-173000000D03*
X78580000Y-173000000D03*
X81580000Y-173000000D03*
X84580000Y-173000000D03*
X87580000Y-173000000D03*
X90580000Y-173000000D03*
X93580000Y-173000000D03*
X96580000Y-173000000D03*
D18*
X160824197Y-138743821D03*
X158999197Y-138743821D03*
D10*
X77380000Y-138080000D03*
X75505000Y-138080000D03*
D18*
X100537500Y-131000000D03*
X98712500Y-131000000D03*
D10*
X92437500Y-138080000D03*
X90562500Y-138080000D03*
D37*
X138700000Y-83000000D03*
X143000000Y-83000000D03*
D11*
X121507500Y-141780000D03*
X123847500Y-141780000D03*
D18*
X118590000Y-138780000D03*
X116765000Y-138780000D03*
D28*
X68500000Y-69912500D03*
X68500000Y-68087500D03*
D38*
X126150000Y-59000000D03*
X133350000Y-59000000D03*
D39*
X136500000Y-53000000D03*
X123000000Y-53000000D03*
D30*
X158614197Y-152583821D03*
X158614197Y-157663821D03*
X158614197Y-162743821D03*
X166234197Y-152583821D03*
X166234197Y-157663821D03*
X166234197Y-162743821D03*
D31*
X158614197Y-144963821D03*
D30*
X166234197Y-144963821D03*
D40*
X66000000Y-117000000D03*
X62500000Y-117000000D03*
D30*
X70380000Y-151920000D03*
X70380000Y-157000000D03*
X70380000Y-162080000D03*
X78000000Y-151920000D03*
X78000000Y-157000000D03*
X78000000Y-162080000D03*
D31*
X70380000Y-144300000D03*
D30*
X78000000Y-144300000D03*
D10*
X110937500Y-138822500D03*
X109062500Y-138822500D03*
D30*
X141830395Y-152620328D03*
X141830395Y-157700328D03*
X141830395Y-162780328D03*
X149450395Y-152620328D03*
X149450395Y-157700328D03*
X149450395Y-162780328D03*
D31*
X141830395Y-145000328D03*
D30*
X149450395Y-145000328D03*
D10*
X165849197Y-138743821D03*
X163974197Y-138743821D03*
D28*
X100500000Y-69912500D03*
X100500000Y-68087500D03*
D11*
X146280395Y-141780328D03*
X148620395Y-141780328D03*
D18*
X89912500Y-165080000D03*
X88087500Y-165080000D03*
D14*
X80562500Y-130000000D03*
X82437500Y-130000000D03*
D41*
X139000000Y-93000000D03*
D42*
X144000000Y-93000000D03*
D43*
X63600000Y-110500000D03*
X65500000Y-110500000D03*
D11*
X121670000Y-91000000D03*
X119330000Y-91000000D03*
D19*
X60000000Y-173000000D03*
D44*
X128500000Y-87000000D03*
X126600000Y-87000000D03*
D11*
X107830000Y-141822500D03*
X110170000Y-141822500D03*
D29*
X71675000Y-131000000D03*
X73500000Y-131000000D03*
D21*
X90500000Y-73125000D03*
X90500000Y-75000000D03*
D11*
X163741697Y-141743821D03*
X166081697Y-141743821D03*
D19*
X180000000Y-173000000D03*
D32*
X92500000Y-105000000D03*
D33*
X88700000Y-120200000D03*
X78500000Y-120200000D03*
D32*
X74700000Y-107500000D03*
D18*
X132590000Y-138780000D03*
X130765000Y-138780000D03*
D19*
X180000000Y-58000000D03*
D20*
X110500000Y-90000000D03*
X113900000Y-90000000D03*
X110500000Y-80080000D03*
X113900000Y-80080000D03*
M02*
