M48
; DRILL file KiCad 10.0.6 date 2026-10-01T15:13:54
; FORMAT={-:-/ absolute / metric / decimal}
; #@! TF.CreationDate,2026-10-01T15:13:54-05:00
; #@! TF.GenerationSoftware,Kicad,Pcbnew,10.0.6
; #@! TF.FileFunction,Plated,1,4,PTH
FMAT,2
METRIC
; #@! TA.AperFunction,Plated,PTH,ViaDrill
T1C0.300
; #@! TA.AperFunction,Plated,PTH,ViaDrill
T2C0.500
; #@! TA.AperFunction,Plated,PTH,ComponentDrill
T3C0.600
; #@! TA.AperFunction,Plated,PTH,ComponentDrill
T4C0.800
; #@! TA.AperFunction,Plated,PTH,ComponentDrill
T5C0.900
; #@! TA.AperFunction,Plated,PTH,ComponentDrill
T6C1.000
; #@! TA.AperFunction,Plated,PTH,ComponentDrill
T7C1.020
; #@! TA.AperFunction,Plated,PTH,ComponentDrill
T8C1.100
; #@! TA.AperFunction,Plated,PTH,ComponentDrill
T9C1.300
; #@! TA.AperFunction,Plated,PTH,ComponentDrill
T10C1.780
; #@! TA.AperFunction,Plated,PTH,ComponentDrill
T11C2.100
; #@! TA.AperFunction,Plated,PTH,ComponentDrill
T12C2.900
%
G90
G05
T1
X86.5Y-167.08
X91.5Y-167.08
X126.677Y-142.78
T2
X63.55Y-109.375
X63.55Y-111.375
X67.5Y-68.0
X69.5Y-68.0
X70.587Y-133.0
X70.587Y-135.0
X75.587Y-134.0
X76.0Y-135.0
X78.5Y-68.0
X80.5Y-68.0
X89.5Y-68.0
X91.5Y-68.0
X98.537Y-130.0
X98.537Y-132.0
X99.5Y-68.0
X101.5Y-68.0
X109.5Y-68.0
X111.5Y-68.0
X119.5Y-92.0
X119.537Y-90.462
X126.5Y-86.0
X126.5Y-88.0
X127.5Y-80.0
X129.5Y-80.0
X136.5Y-83.0
X138.0Y-82.0
X138.0Y-84.5
T4
X62.5Y-117.0
X66.0Y-117.0
T5
X139.0Y-93.0
X144.0Y-93.0
T6
X70.38Y-144.3
X70.38Y-151.92
X70.38Y-157.0
X70.38Y-162.08
X78.0Y-144.3
X78.0Y-151.92
X78.0Y-157.0
X78.0Y-162.08
X85.12Y-144.3
X85.12Y-151.92
X85.12Y-157.0
X85.12Y-162.08
X92.74Y-144.3
X92.74Y-151.92
X92.74Y-157.0
X92.74Y-162.08
X103.19Y-145.041
X103.19Y-152.661
X103.19Y-157.741
X103.19Y-162.821
X110.81Y-145.041
X110.81Y-152.661
X110.81Y-157.741
X110.81Y-162.821
X116.38Y-145.0
X116.38Y-152.62
X116.38Y-157.7
X116.38Y-162.78
X119.5Y-70.0
X119.5Y-72.54
X119.5Y-75.08
X119.5Y-77.62
X119.5Y-80.16
X119.5Y-82.7
X122.04Y-70.0
X122.04Y-72.54
X122.04Y-75.08
X122.04Y-77.62
X122.04Y-80.16
X122.04Y-82.7
X124.0Y-145.0
X124.0Y-152.62
X124.0Y-157.7
X124.0Y-162.78
X129.0Y-145.0
X129.0Y-152.62
X129.0Y-157.7
X129.0Y-162.78
X136.62Y-145.0
X136.62Y-152.62
X136.62Y-157.7
X136.62Y-162.78
X141.83Y-145.0
X141.83Y-152.62
X141.83Y-157.7
X141.83Y-162.78
X149.45Y-145.0
X149.45Y-152.62
X149.45Y-157.7
X149.45Y-162.78
X158.614Y-144.964
X158.614Y-152.584
X158.614Y-157.664
X158.614Y-162.744
X166.234Y-144.964
X166.234Y-152.584
X166.234Y-157.664
X166.234Y-162.744
T7
X62.33Y-158.331
X62.33Y-161.331
X62.33Y-164.331
X62.5Y-131.0
X62.5Y-134.0
X62.5Y-137.0
X62.5Y-140.0
X62.5Y-143.0
X69.58Y-173.0
X72.58Y-173.0
X75.58Y-173.0
X78.58Y-173.0
X81.58Y-173.0
X84.58Y-173.0
X87.58Y-173.0
X90.58Y-173.0
X93.58Y-173.0
X96.58Y-173.0
X105.0Y-173.0
X108.0Y-173.0
X111.0Y-173.0
X114.0Y-173.0
X117.0Y-173.0
X120.0Y-173.0
X123.0Y-173.0
X144.0Y-173.0
X147.0Y-173.0
X150.0Y-173.0
X153.0Y-173.0
X156.0Y-173.0
X159.0Y-173.0
X162.0Y-173.0
T8
X78.5Y-120.2
X88.7Y-120.2
X108.3Y-101.3
X118.5Y-101.3
T9
X68.78Y-56.5
X73.86Y-56.5
X78.94Y-56.5
X84.02Y-56.5
X89.1Y-56.5
X94.18Y-56.5
X99.26Y-56.5
X104.34Y-56.5
X109.42Y-56.5
X114.5Y-56.5
T10
X69.1Y-80.0
X69.1Y-89.92
X72.5Y-80.0
X72.5Y-89.92
X80.1Y-80.0
X80.1Y-89.92
X83.5Y-80.0
X83.5Y-89.92
X90.5Y-80.08
X90.5Y-90.0
X93.9Y-80.08
X93.9Y-90.0
X100.5Y-80.08
X100.5Y-90.0
X103.9Y-80.08
X103.9Y-90.0
X110.5Y-80.08
X110.5Y-90.0
X113.9Y-80.08
X113.9Y-90.0
X139.08Y-66.04
X139.08Y-75.96
X142.48Y-66.04
X142.48Y-75.96
T11
X74.7Y-107.5
X92.5Y-105.0
X104.5Y-116.5
X122.3Y-114.0
T12
X126.15Y-59.0
X133.35Y-59.0
T3
X123.0Y-52.5G85X123.0Y-53.5
G05
X136.5Y-52.5G85X136.5Y-53.5
G05
M30
