G04 #@! TF.GenerationSoftware,KiCad,Pcbnew,10.0.6*
G04 #@! TF.CreationDate,2026-10-01T15:13:54-05:00*
G04 #@! TF.ProjectId,CREWLINE-PRIM-PCB-001,43524557-4c49-44e4-952d-5052494d2d50,V3.1-H1*
G04 #@! TF.SameCoordinates,Original*
G04 #@! TF.FileFunction,Legend,Top*
G04 #@! TF.FilePolarity,Positive*
%FSLAX46Y46*%
G04 Gerber Fmt 4.6, Leading zero omitted, Abs format (unit mm)*
G04 Created by KiCad (PCBNEW 10.0.6) date 2026-10-01 15:13:54*
%MOMM*%
%LPD*%
G01*
G04 APERTURE LIST*
G04 Aperture macros list*
%AMRoundRect*
0 Rectangle with rounded corners*
0 $1 Rounding radius*
0 $2 $3 $4 $5 $6 $7 $8 $9 X,Y pos of 4 corners*
0 Add a 4 corners polygon primitive as box body*
4,1,4,$2,$3,$4,$5,$6,$7,$8,$9,$2,$3,0*
0 Add four circle primitives for the rounded corners*
1,1,$1+$1,$2,$3*
1,1,$1+$1,$4,$5*
1,1,$1+$1,$6,$7*
1,1,$1+$1,$8,$9*
0 Add four rect primitives between the rounded corners*
20,1,$1+$1,$2,$3,$4,$5,0*
20,1,$1+$1,$4,$5,$6,$7,0*
20,1,$1+$1,$6,$7,$8,$9,0*
20,1,$1+$1,$8,$9,$2,$3,0*%
G04 Aperture macros list end*
%ADD10C,0.300000*%
%ADD11C,0.150000*%
%ADD12C,0.200000*%
%ADD13C,0.180000*%
%ADD14C,0.120000*%
%ADD15C,0.060000*%
%ADD16C,0.000000*%
%ADD17C,0.127000*%
%ADD18C,0.250000*%
%ADD19RoundRect,0.243750X0.243750X0.456250X-0.243750X0.456250X-0.243750X-0.456250X0.243750X-0.456250X0*%
%ADD20R,1.000000X0.700000*%
%ADD21RoundRect,0.250000X1.050000X1.050000X-1.050000X1.050000X-1.050000X-1.050000X1.050000X-1.050000X0*%
%ADD22C,2.600000*%
%ADD23RoundRect,0.243750X-0.243750X-0.456250X0.243750X-0.456250X0.243750X0.456250X-0.243750X0.456250X0*%
%ADD24C,1.270000*%
%ADD25RoundRect,0.250001X-0.499999X-0.759999X0.499999X-0.759999X0.499999X0.759999X-0.499999X0.759999X0*%
%ADD26O,1.500000X2.020000*%
%ADD27RoundRect,0.250000X0.262500X0.450000X-0.262500X0.450000X-0.262500X-0.450000X0.262500X-0.450000X0*%
%ADD28C,4.300000*%
%ADD29C,2.780000*%
%ADD30RoundRect,0.243750X-0.456250X0.243750X-0.456250X-0.243750X0.456250X-0.243750X0.456250X0.243750X0*%
%ADD31R,1.700000X1.700000*%
%ADD32C,1.700000*%
%ADD33RoundRect,0.150000X-0.587500X-0.150000X0.587500X-0.150000X0.587500X0.150000X-0.587500X0.150000X0*%
%ADD34R,0.700000X1.000000*%
%ADD35R,1.600000X3.000000*%
%ADD36R,5.800000X6.200000*%
%ADD37RoundRect,0.250000X0.450000X-0.262500X0.450000X0.262500X-0.450000X0.262500X-0.450000X-0.262500X0*%
%ADD38RoundRect,0.250000X-0.262500X-0.450000X0.262500X-0.450000X0.262500X0.450000X-0.262500X0.450000X0*%
%ADD39C,2.000000*%
%ADD40RoundRect,0.250000X-0.750000X-0.750000X0.750000X-0.750000X0.750000X0.750000X-0.750000X0.750000X0*%
%ADD41C,3.320000*%
%ADD42C,1.854000*%
%ADD43RoundRect,0.250000X-0.450000X0.262500X-0.450000X-0.262500X0.450000X-0.262500X0.450000X0.262500X0*%
%ADD44RoundRect,0.250001X-0.759999X0.499999X-0.759999X-0.499999X0.759999X-0.499999X0.759999X0.499999X0*%
%ADD45O,2.020000X1.500000*%
%ADD46RoundRect,0.250000X-1.000000X-0.900000X1.000000X-0.900000X1.000000X0.900000X-1.000000X0.900000X0*%
%ADD47C,3.800000*%
%ADD48O,1.200000X2.200000*%
%ADD49C,1.600000*%
%ADD50RoundRect,0.102000X-0.800000X-0.800000X0.800000X-0.800000X0.800000X0.800000X-0.800000X0.800000X0*%
%ADD51C,1.804000*%
%ADD52RoundRect,0.250000X-0.250000X-0.475000X0.250000X-0.475000X0.250000X0.475000X-0.250000X0.475000X0*%
%ADD53RoundRect,0.250000X0.250000X0.475000X-0.250000X0.475000X-0.250000X-0.475000X0.250000X-0.475000X0*%
G04 APERTURE END LIST*
D10*
X66229400Y-89516917D02*
X66300828Y-89302632D01*
X66300828Y-89302632D02*
X66300828Y-88945489D01*
X66300828Y-88945489D02*
X66229400Y-88802632D01*
X66229400Y-88802632D02*
X66157971Y-88731203D01*
X66157971Y-88731203D02*
X66015114Y-88659774D01*
X66015114Y-88659774D02*
X65872257Y-88659774D01*
X65872257Y-88659774D02*
X65729400Y-88731203D01*
X65729400Y-88731203D02*
X65657971Y-88802632D01*
X65657971Y-88802632D02*
X65586542Y-88945489D01*
X65586542Y-88945489D02*
X65515114Y-89231203D01*
X65515114Y-89231203D02*
X65443685Y-89374060D01*
X65443685Y-89374060D02*
X65372257Y-89445489D01*
X65372257Y-89445489D02*
X65229400Y-89516917D01*
X65229400Y-89516917D02*
X65086542Y-89516917D01*
X65086542Y-89516917D02*
X64943685Y-89445489D01*
X64943685Y-89445489D02*
X64872257Y-89374060D01*
X64872257Y-89374060D02*
X64800828Y-89231203D01*
X64800828Y-89231203D02*
X64800828Y-88874060D01*
X64800828Y-88874060D02*
X64872257Y-88659774D01*
X64800828Y-88231203D02*
X64800828Y-87374061D01*
X66300828Y-87802632D02*
X64800828Y-87802632D01*
X65515114Y-86874061D02*
X65515114Y-86374061D01*
X66300828Y-86159775D02*
X66300828Y-86874061D01*
X66300828Y-86874061D02*
X64800828Y-86874061D01*
X64800828Y-86874061D02*
X64800828Y-86159775D01*
X65515114Y-85516918D02*
X65515114Y-85016918D01*
X66300828Y-84802632D02*
X66300828Y-85516918D01*
X66300828Y-85516918D02*
X64800828Y-85516918D01*
X64800828Y-85516918D02*
X64800828Y-84802632D01*
X66300828Y-83302632D02*
X65586542Y-83802632D01*
X66300828Y-84159775D02*
X64800828Y-84159775D01*
X64800828Y-84159775D02*
X64800828Y-83588346D01*
X64800828Y-83588346D02*
X64872257Y-83445489D01*
X64872257Y-83445489D02*
X64943685Y-83374060D01*
X64943685Y-83374060D02*
X65086542Y-83302632D01*
X65086542Y-83302632D02*
X65300828Y-83302632D01*
X65300828Y-83302632D02*
X65443685Y-83374060D01*
X65443685Y-83374060D02*
X65515114Y-83445489D01*
X65515114Y-83445489D02*
X65586542Y-83588346D01*
X65586542Y-83588346D02*
X65586542Y-84159775D01*
X66300828Y-82659775D02*
X64800828Y-82659775D01*
X66300828Y-81945489D02*
X64800828Y-81945489D01*
X64800828Y-81945489D02*
X66300828Y-81088346D01*
X66300828Y-81088346D02*
X64800828Y-81088346D01*
X64872257Y-79588345D02*
X64800828Y-79731203D01*
X64800828Y-79731203D02*
X64800828Y-79945488D01*
X64800828Y-79945488D02*
X64872257Y-80159774D01*
X64872257Y-80159774D02*
X65015114Y-80302631D01*
X65015114Y-80302631D02*
X65157971Y-80374060D01*
X65157971Y-80374060D02*
X65443685Y-80445488D01*
X65443685Y-80445488D02*
X65657971Y-80445488D01*
X65657971Y-80445488D02*
X65943685Y-80374060D01*
X65943685Y-80374060D02*
X66086542Y-80302631D01*
X66086542Y-80302631D02*
X66229400Y-80159774D01*
X66229400Y-80159774D02*
X66300828Y-79945488D01*
X66300828Y-79945488D02*
X66300828Y-79802631D01*
X66300828Y-79802631D02*
X66229400Y-79588345D01*
X66229400Y-79588345D02*
X66157971Y-79516917D01*
X66157971Y-79516917D02*
X65657971Y-79516917D01*
X65657971Y-79516917D02*
X65657971Y-79802631D01*
X75800828Y-88516917D02*
X76872257Y-88516917D01*
X76872257Y-88516917D02*
X77086542Y-88588346D01*
X77086542Y-88588346D02*
X77229400Y-88731203D01*
X77229400Y-88731203D02*
X77300828Y-88945489D01*
X77300828Y-88945489D02*
X77300828Y-89088346D01*
X76515114Y-87802632D02*
X76515114Y-87302632D01*
X77300828Y-87088346D02*
X77300828Y-87802632D01*
X77300828Y-87802632D02*
X75800828Y-87802632D01*
X75800828Y-87802632D02*
X75800828Y-87088346D01*
X75800828Y-86659774D02*
X75800828Y-85802632D01*
X77300828Y-86231203D02*
X75800828Y-86231203D01*
X77229400Y-85374060D02*
X77300828Y-85159775D01*
X77300828Y-85159775D02*
X77300828Y-84802632D01*
X77300828Y-84802632D02*
X77229400Y-84659775D01*
X77229400Y-84659775D02*
X77157971Y-84588346D01*
X77157971Y-84588346D02*
X77015114Y-84516917D01*
X77015114Y-84516917D02*
X76872257Y-84516917D01*
X76872257Y-84516917D02*
X76729400Y-84588346D01*
X76729400Y-84588346D02*
X76657971Y-84659775D01*
X76657971Y-84659775D02*
X76586542Y-84802632D01*
X76586542Y-84802632D02*
X76515114Y-85088346D01*
X76515114Y-85088346D02*
X76443685Y-85231203D01*
X76443685Y-85231203D02*
X76372257Y-85302632D01*
X76372257Y-85302632D02*
X76229400Y-85374060D01*
X76229400Y-85374060D02*
X76086542Y-85374060D01*
X76086542Y-85374060D02*
X75943685Y-85302632D01*
X75943685Y-85302632D02*
X75872257Y-85231203D01*
X75872257Y-85231203D02*
X75800828Y-85088346D01*
X75800828Y-85088346D02*
X75800828Y-84731203D01*
X75800828Y-84731203D02*
X75872257Y-84516917D01*
X75800828Y-83588346D02*
X75800828Y-83302632D01*
X75800828Y-83302632D02*
X75872257Y-83159775D01*
X75872257Y-83159775D02*
X76015114Y-83016918D01*
X76015114Y-83016918D02*
X76300828Y-82945489D01*
X76300828Y-82945489D02*
X76800828Y-82945489D01*
X76800828Y-82945489D02*
X77086542Y-83016918D01*
X77086542Y-83016918D02*
X77229400Y-83159775D01*
X77229400Y-83159775D02*
X77300828Y-83302632D01*
X77300828Y-83302632D02*
X77300828Y-83588346D01*
X77300828Y-83588346D02*
X77229400Y-83731204D01*
X77229400Y-83731204D02*
X77086542Y-83874061D01*
X77086542Y-83874061D02*
X76800828Y-83945489D01*
X76800828Y-83945489D02*
X76300828Y-83945489D01*
X76300828Y-83945489D02*
X76015114Y-83874061D01*
X76015114Y-83874061D02*
X75872257Y-83731204D01*
X75872257Y-83731204D02*
X75800828Y-83588346D01*
X77300828Y-82302632D02*
X75800828Y-82302632D01*
X75800828Y-82302632D02*
X77300828Y-81445489D01*
X77300828Y-81445489D02*
X75800828Y-81445489D01*
X87800828Y-85731203D02*
X87800828Y-86445489D01*
X87800828Y-86445489D02*
X86300828Y-86445489D01*
X87015114Y-85231203D02*
X87015114Y-84731203D01*
X87800828Y-84516917D02*
X87800828Y-85231203D01*
X87800828Y-85231203D02*
X86300828Y-85231203D01*
X86300828Y-85231203D02*
X86300828Y-84516917D01*
X87800828Y-83874060D02*
X86300828Y-83874060D01*
X86300828Y-83874060D02*
X86300828Y-83516917D01*
X86300828Y-83516917D02*
X86372257Y-83302631D01*
X86372257Y-83302631D02*
X86515114Y-83159774D01*
X86515114Y-83159774D02*
X86657971Y-83088345D01*
X86657971Y-83088345D02*
X86943685Y-83016917D01*
X86943685Y-83016917D02*
X87157971Y-83016917D01*
X87157971Y-83016917D02*
X87443685Y-83088345D01*
X87443685Y-83088345D02*
X87586542Y-83159774D01*
X87586542Y-83159774D02*
X87729400Y-83302631D01*
X87729400Y-83302631D02*
X87800828Y-83516917D01*
X87800828Y-83516917D02*
X87800828Y-83874060D01*
X97800828Y-86445489D02*
X96300828Y-86445489D01*
X96300828Y-86445489D02*
X96300828Y-86088346D01*
X96300828Y-86088346D02*
X96372257Y-85874060D01*
X96372257Y-85874060D02*
X96515114Y-85731203D01*
X96515114Y-85731203D02*
X96657971Y-85659774D01*
X96657971Y-85659774D02*
X96943685Y-85588346D01*
X96943685Y-85588346D02*
X97157971Y-85588346D01*
X97157971Y-85588346D02*
X97443685Y-85659774D01*
X97443685Y-85659774D02*
X97586542Y-85731203D01*
X97586542Y-85731203D02*
X97729400Y-85874060D01*
X97729400Y-85874060D02*
X97800828Y-86088346D01*
X97800828Y-86088346D02*
X97800828Y-86445489D01*
X97800828Y-84945489D02*
X96300828Y-84945489D01*
X96300828Y-83945488D02*
X96300828Y-83659774D01*
X96300828Y-83659774D02*
X96372257Y-83516917D01*
X96372257Y-83516917D02*
X96515114Y-83374060D01*
X96515114Y-83374060D02*
X96800828Y-83302631D01*
X96800828Y-83302631D02*
X97300828Y-83302631D01*
X97300828Y-83302631D02*
X97586542Y-83374060D01*
X97586542Y-83374060D02*
X97729400Y-83516917D01*
X97729400Y-83516917D02*
X97800828Y-83659774D01*
X97800828Y-83659774D02*
X97800828Y-83945488D01*
X97800828Y-83945488D02*
X97729400Y-84088346D01*
X97729400Y-84088346D02*
X97586542Y-84231203D01*
X97586542Y-84231203D02*
X97300828Y-84302631D01*
X97300828Y-84302631D02*
X96800828Y-84302631D01*
X96800828Y-84302631D02*
X96515114Y-84231203D01*
X96515114Y-84231203D02*
X96372257Y-84088346D01*
X96372257Y-84088346D02*
X96300828Y-83945488D01*
X107100198Y-87945489D02*
X107171626Y-87731203D01*
X107171626Y-87731203D02*
X107243055Y-87659774D01*
X107243055Y-87659774D02*
X107385912Y-87588346D01*
X107385912Y-87588346D02*
X107600198Y-87588346D01*
X107600198Y-87588346D02*
X107743055Y-87659774D01*
X107743055Y-87659774D02*
X107814484Y-87731203D01*
X107814484Y-87731203D02*
X107885912Y-87874060D01*
X107885912Y-87874060D02*
X107885912Y-88445489D01*
X107885912Y-88445489D02*
X106385912Y-88445489D01*
X106385912Y-88445489D02*
X106385912Y-87945489D01*
X106385912Y-87945489D02*
X106457341Y-87802632D01*
X106457341Y-87802632D02*
X106528769Y-87731203D01*
X106528769Y-87731203D02*
X106671626Y-87659774D01*
X106671626Y-87659774D02*
X106814484Y-87659774D01*
X106814484Y-87659774D02*
X106957341Y-87731203D01*
X106957341Y-87731203D02*
X107028769Y-87802632D01*
X107028769Y-87802632D02*
X107100198Y-87945489D01*
X107100198Y-87945489D02*
X107100198Y-88445489D01*
X106385912Y-86659774D02*
X106385912Y-86374060D01*
X106385912Y-86374060D02*
X106457341Y-86231203D01*
X106457341Y-86231203D02*
X106600198Y-86088346D01*
X106600198Y-86088346D02*
X106885912Y-86016917D01*
X106885912Y-86016917D02*
X107385912Y-86016917D01*
X107385912Y-86016917D02*
X107671626Y-86088346D01*
X107671626Y-86088346D02*
X107814484Y-86231203D01*
X107814484Y-86231203D02*
X107885912Y-86374060D01*
X107885912Y-86374060D02*
X107885912Y-86659774D01*
X107885912Y-86659774D02*
X107814484Y-86802632D01*
X107814484Y-86802632D02*
X107671626Y-86945489D01*
X107671626Y-86945489D02*
X107385912Y-87016917D01*
X107385912Y-87016917D02*
X106885912Y-87016917D01*
X106885912Y-87016917D02*
X106600198Y-86945489D01*
X106600198Y-86945489D02*
X106457341Y-86802632D01*
X106457341Y-86802632D02*
X106385912Y-86659774D01*
X106385912Y-85088345D02*
X106385912Y-84802631D01*
X106385912Y-84802631D02*
X106457341Y-84659774D01*
X106457341Y-84659774D02*
X106600198Y-84516917D01*
X106600198Y-84516917D02*
X106885912Y-84445488D01*
X106885912Y-84445488D02*
X107385912Y-84445488D01*
X107385912Y-84445488D02*
X107671626Y-84516917D01*
X107671626Y-84516917D02*
X107814484Y-84659774D01*
X107814484Y-84659774D02*
X107885912Y-84802631D01*
X107885912Y-84802631D02*
X107885912Y-85088345D01*
X107885912Y-85088345D02*
X107814484Y-85231203D01*
X107814484Y-85231203D02*
X107671626Y-85374060D01*
X107671626Y-85374060D02*
X107385912Y-85445488D01*
X107385912Y-85445488D02*
X106885912Y-85445488D01*
X106885912Y-85445488D02*
X106600198Y-85374060D01*
X106600198Y-85374060D02*
X106457341Y-85231203D01*
X106457341Y-85231203D02*
X106385912Y-85088345D01*
X107814484Y-83874059D02*
X107885912Y-83659774D01*
X107885912Y-83659774D02*
X107885912Y-83302631D01*
X107885912Y-83302631D02*
X107814484Y-83159774D01*
X107814484Y-83159774D02*
X107743055Y-83088345D01*
X107743055Y-83088345D02*
X107600198Y-83016916D01*
X107600198Y-83016916D02*
X107457341Y-83016916D01*
X107457341Y-83016916D02*
X107314484Y-83088345D01*
X107314484Y-83088345D02*
X107243055Y-83159774D01*
X107243055Y-83159774D02*
X107171626Y-83302631D01*
X107171626Y-83302631D02*
X107100198Y-83588345D01*
X107100198Y-83588345D02*
X107028769Y-83731202D01*
X107028769Y-83731202D02*
X106957341Y-83802631D01*
X106957341Y-83802631D02*
X106814484Y-83874059D01*
X106814484Y-83874059D02*
X106671626Y-83874059D01*
X106671626Y-83874059D02*
X106528769Y-83802631D01*
X106528769Y-83802631D02*
X106457341Y-83731202D01*
X106457341Y-83731202D02*
X106385912Y-83588345D01*
X106385912Y-83588345D02*
X106385912Y-83231202D01*
X106385912Y-83231202D02*
X106457341Y-83016916D01*
X106385912Y-82588345D02*
X106385912Y-81731203D01*
X107885912Y-82159774D02*
X106385912Y-82159774D01*
D11*
X91306666Y-49754819D02*
X91306666Y-50469104D01*
X91306666Y-50469104D02*
X91259047Y-50611961D01*
X91259047Y-50611961D02*
X91163809Y-50707200D01*
X91163809Y-50707200D02*
X91020952Y-50754819D01*
X91020952Y-50754819D02*
X90925714Y-50754819D01*
X92211428Y-50088152D02*
X92211428Y-50754819D01*
X91973333Y-49707200D02*
X91735238Y-50421485D01*
X91735238Y-50421485D02*
X92354285Y-50421485D01*
X152190476Y-168784819D02*
X152190476Y-169499104D01*
X152190476Y-169499104D02*
X152142857Y-169641961D01*
X152142857Y-169641961D02*
X152047619Y-169737200D01*
X152047619Y-169737200D02*
X151904762Y-169784819D01*
X151904762Y-169784819D02*
X151809524Y-169784819D01*
X153190476Y-169784819D02*
X152619048Y-169784819D01*
X152904762Y-169784819D02*
X152904762Y-168784819D01*
X152904762Y-168784819D02*
X152809524Y-168927676D01*
X152809524Y-168927676D02*
X152714286Y-169022914D01*
X152714286Y-169022914D02*
X152619048Y-169070533D01*
X153809524Y-168784819D02*
X153904762Y-168784819D01*
X153904762Y-168784819D02*
X154000000Y-168832438D01*
X154000000Y-168832438D02*
X154047619Y-168880057D01*
X154047619Y-168880057D02*
X154095238Y-168975295D01*
X154095238Y-168975295D02*
X154142857Y-169165771D01*
X154142857Y-169165771D02*
X154142857Y-169403866D01*
X154142857Y-169403866D02*
X154095238Y-169594342D01*
X154095238Y-169594342D02*
X154047619Y-169689580D01*
X154047619Y-169689580D02*
X154000000Y-169737200D01*
X154000000Y-169737200D02*
X153904762Y-169784819D01*
X153904762Y-169784819D02*
X153809524Y-169784819D01*
X153809524Y-169784819D02*
X153714286Y-169737200D01*
X153714286Y-169737200D02*
X153666667Y-169689580D01*
X153666667Y-169689580D02*
X153619048Y-169594342D01*
X153619048Y-169594342D02*
X153571429Y-169403866D01*
X153571429Y-169403866D02*
X153571429Y-169165771D01*
X153571429Y-169165771D02*
X153619048Y-168975295D01*
X153619048Y-168975295D02*
X153666667Y-168880057D01*
X153666667Y-168880057D02*
X153714286Y-168832438D01*
X153714286Y-168832438D02*
X153809524Y-168784819D01*
X120436666Y-67074819D02*
X120436666Y-67789104D01*
X120436666Y-67789104D02*
X120389047Y-67931961D01*
X120389047Y-67931961D02*
X120293809Y-68027200D01*
X120293809Y-68027200D02*
X120150952Y-68074819D01*
X120150952Y-68074819D02*
X120055714Y-68074819D01*
X120960476Y-68074819D02*
X121150952Y-68074819D01*
X121150952Y-68074819D02*
X121246190Y-68027200D01*
X121246190Y-68027200D02*
X121293809Y-67979580D01*
X121293809Y-67979580D02*
X121389047Y-67836723D01*
X121389047Y-67836723D02*
X121436666Y-67646247D01*
X121436666Y-67646247D02*
X121436666Y-67265295D01*
X121436666Y-67265295D02*
X121389047Y-67170057D01*
X121389047Y-67170057D02*
X121341428Y-67122438D01*
X121341428Y-67122438D02*
X121246190Y-67074819D01*
X121246190Y-67074819D02*
X121055714Y-67074819D01*
X121055714Y-67074819D02*
X120960476Y-67122438D01*
X120960476Y-67122438D02*
X120912857Y-67170057D01*
X120912857Y-67170057D02*
X120865238Y-67265295D01*
X120865238Y-67265295D02*
X120865238Y-67503390D01*
X120865238Y-67503390D02*
X120912857Y-67598628D01*
X120912857Y-67598628D02*
X120960476Y-67646247D01*
X120960476Y-67646247D02*
X121055714Y-67693866D01*
X121055714Y-67693866D02*
X121246190Y-67693866D01*
X121246190Y-67693866D02*
X121341428Y-67646247D01*
X121341428Y-67646247D02*
X121389047Y-67598628D01*
X121389047Y-67598628D02*
X121436666Y-67503390D01*
X113666666Y-168784819D02*
X113666666Y-169499104D01*
X113666666Y-169499104D02*
X113619047Y-169641961D01*
X113619047Y-169641961D02*
X113523809Y-169737200D01*
X113523809Y-169737200D02*
X113380952Y-169784819D01*
X113380952Y-169784819D02*
X113285714Y-169784819D01*
X114047619Y-168784819D02*
X114714285Y-168784819D01*
X114714285Y-168784819D02*
X114285714Y-169784819D01*
X113954819Y-161846309D02*
X112954819Y-161846309D01*
X113954819Y-161274881D02*
X113383390Y-161703452D01*
X112954819Y-161274881D02*
X113526247Y-161846309D01*
X114050057Y-161084405D02*
X114050057Y-160322500D01*
X113431009Y-159751071D02*
X113478628Y-159608214D01*
X113478628Y-159608214D02*
X113526247Y-159560595D01*
X113526247Y-159560595D02*
X113621485Y-159512976D01*
X113621485Y-159512976D02*
X113764342Y-159512976D01*
X113764342Y-159512976D02*
X113859580Y-159560595D01*
X113859580Y-159560595D02*
X113907200Y-159608214D01*
X113907200Y-159608214D02*
X113954819Y-159703452D01*
X113954819Y-159703452D02*
X113954819Y-160084404D01*
X113954819Y-160084404D02*
X112954819Y-160084404D01*
X112954819Y-160084404D02*
X112954819Y-159751071D01*
X112954819Y-159751071D02*
X113002438Y-159655833D01*
X113002438Y-159655833D02*
X113050057Y-159608214D01*
X113050057Y-159608214D02*
X113145295Y-159560595D01*
X113145295Y-159560595D02*
X113240533Y-159560595D01*
X113240533Y-159560595D02*
X113335771Y-159608214D01*
X113335771Y-159608214D02*
X113383390Y-159655833D01*
X113383390Y-159655833D02*
X113431009Y-159751071D01*
X113431009Y-159751071D02*
X113431009Y-160084404D01*
X113954819Y-158512976D02*
X113478628Y-158846309D01*
X113954819Y-159084404D02*
X112954819Y-159084404D01*
X112954819Y-159084404D02*
X112954819Y-158703452D01*
X112954819Y-158703452D02*
X113002438Y-158608214D01*
X113002438Y-158608214D02*
X113050057Y-158560595D01*
X113050057Y-158560595D02*
X113145295Y-158512976D01*
X113145295Y-158512976D02*
X113288152Y-158512976D01*
X113288152Y-158512976D02*
X113383390Y-158560595D01*
X113383390Y-158560595D02*
X113431009Y-158608214D01*
X113431009Y-158608214D02*
X113478628Y-158703452D01*
X113478628Y-158703452D02*
X113478628Y-159084404D01*
X113669104Y-158132023D02*
X113669104Y-157655833D01*
X113954819Y-158227261D02*
X112954819Y-157893928D01*
X112954819Y-157893928D02*
X113954819Y-157560595D01*
X113954819Y-157227261D02*
X112954819Y-157227261D01*
X113954819Y-156655833D02*
X113383390Y-157084404D01*
X112954819Y-156655833D02*
X113526247Y-157227261D01*
X113431009Y-156227261D02*
X113431009Y-155893928D01*
X113954819Y-155751071D02*
X113954819Y-156227261D01*
X113954819Y-156227261D02*
X112954819Y-156227261D01*
X112954819Y-156227261D02*
X112954819Y-155751071D01*
X114050057Y-155560595D02*
X114050057Y-154798690D01*
X113907200Y-154608213D02*
X113954819Y-154465356D01*
X113954819Y-154465356D02*
X113954819Y-154227261D01*
X113954819Y-154227261D02*
X113907200Y-154132023D01*
X113907200Y-154132023D02*
X113859580Y-154084404D01*
X113859580Y-154084404D02*
X113764342Y-154036785D01*
X113764342Y-154036785D02*
X113669104Y-154036785D01*
X113669104Y-154036785D02*
X113573866Y-154084404D01*
X113573866Y-154084404D02*
X113526247Y-154132023D01*
X113526247Y-154132023D02*
X113478628Y-154227261D01*
X113478628Y-154227261D02*
X113431009Y-154417737D01*
X113431009Y-154417737D02*
X113383390Y-154512975D01*
X113383390Y-154512975D02*
X113335771Y-154560594D01*
X113335771Y-154560594D02*
X113240533Y-154608213D01*
X113240533Y-154608213D02*
X113145295Y-154608213D01*
X113145295Y-154608213D02*
X113050057Y-154560594D01*
X113050057Y-154560594D02*
X113002438Y-154512975D01*
X113002438Y-154512975D02*
X112954819Y-154417737D01*
X112954819Y-154417737D02*
X112954819Y-154179642D01*
X112954819Y-154179642D02*
X113002438Y-154036785D01*
X113431009Y-153608213D02*
X113431009Y-153274880D01*
X113954819Y-153132023D02*
X113954819Y-153608213D01*
X113954819Y-153608213D02*
X112954819Y-153608213D01*
X112954819Y-153608213D02*
X112954819Y-153132023D01*
X113669104Y-152751070D02*
X113669104Y-152274880D01*
X113954819Y-152846308D02*
X112954819Y-152512975D01*
X112954819Y-152512975D02*
X113954819Y-152179642D01*
X112954819Y-151989165D02*
X112954819Y-151417737D01*
X113954819Y-151703451D02*
X112954819Y-151703451D01*
X114050057Y-151322499D02*
X114050057Y-150560594D01*
X113431009Y-149989165D02*
X113478628Y-149846308D01*
X113478628Y-149846308D02*
X113526247Y-149798689D01*
X113526247Y-149798689D02*
X113621485Y-149751070D01*
X113621485Y-149751070D02*
X113764342Y-149751070D01*
X113764342Y-149751070D02*
X113859580Y-149798689D01*
X113859580Y-149798689D02*
X113907200Y-149846308D01*
X113907200Y-149846308D02*
X113954819Y-149941546D01*
X113954819Y-149941546D02*
X113954819Y-150322498D01*
X113954819Y-150322498D02*
X112954819Y-150322498D01*
X112954819Y-150322498D02*
X112954819Y-149989165D01*
X112954819Y-149989165D02*
X113002438Y-149893927D01*
X113002438Y-149893927D02*
X113050057Y-149846308D01*
X113050057Y-149846308D02*
X113145295Y-149798689D01*
X113145295Y-149798689D02*
X113240533Y-149798689D01*
X113240533Y-149798689D02*
X113335771Y-149846308D01*
X113335771Y-149846308D02*
X113383390Y-149893927D01*
X113383390Y-149893927D02*
X113431009Y-149989165D01*
X113431009Y-149989165D02*
X113431009Y-150322498D01*
X112954819Y-149132022D02*
X112954819Y-148941546D01*
X112954819Y-148941546D02*
X113002438Y-148846308D01*
X113002438Y-148846308D02*
X113097676Y-148751070D01*
X113097676Y-148751070D02*
X113288152Y-148703451D01*
X113288152Y-148703451D02*
X113621485Y-148703451D01*
X113621485Y-148703451D02*
X113811961Y-148751070D01*
X113811961Y-148751070D02*
X113907200Y-148846308D01*
X113907200Y-148846308D02*
X113954819Y-148941546D01*
X113954819Y-148941546D02*
X113954819Y-149132022D01*
X113954819Y-149132022D02*
X113907200Y-149227260D01*
X113907200Y-149227260D02*
X113811961Y-149322498D01*
X113811961Y-149322498D02*
X113621485Y-149370117D01*
X113621485Y-149370117D02*
X113288152Y-149370117D01*
X113288152Y-149370117D02*
X113097676Y-149322498D01*
X113097676Y-149322498D02*
X113002438Y-149227260D01*
X113002438Y-149227260D02*
X112954819Y-149132022D01*
X113954819Y-148274879D02*
X112954819Y-148274879D01*
X112954819Y-148274879D02*
X113669104Y-147941546D01*
X113669104Y-147941546D02*
X112954819Y-147608213D01*
X112954819Y-147608213D02*
X113954819Y-147608213D01*
X113669104Y-147179641D02*
X113669104Y-146703451D01*
X113954819Y-147274879D02*
X112954819Y-146941546D01*
X112954819Y-146941546D02*
X113954819Y-146608213D01*
X113002438Y-145751070D02*
X112954819Y-145846308D01*
X112954819Y-145846308D02*
X112954819Y-145989165D01*
X112954819Y-145989165D02*
X113002438Y-146132022D01*
X113002438Y-146132022D02*
X113097676Y-146227260D01*
X113097676Y-146227260D02*
X113192914Y-146274879D01*
X113192914Y-146274879D02*
X113383390Y-146322498D01*
X113383390Y-146322498D02*
X113526247Y-146322498D01*
X113526247Y-146322498D02*
X113716723Y-146274879D01*
X113716723Y-146274879D02*
X113811961Y-146227260D01*
X113811961Y-146227260D02*
X113907200Y-146132022D01*
X113907200Y-146132022D02*
X113954819Y-145989165D01*
X113954819Y-145989165D02*
X113954819Y-145893927D01*
X113954819Y-145893927D02*
X113907200Y-145751070D01*
X113907200Y-145751070D02*
X113859580Y-145703451D01*
X113859580Y-145703451D02*
X113526247Y-145703451D01*
X113526247Y-145703451D02*
X113526247Y-145893927D01*
X113954819Y-144751070D02*
X113954819Y-145322498D01*
X113954819Y-145036784D02*
X112954819Y-145036784D01*
X112954819Y-145036784D02*
X113097676Y-145132022D01*
X113097676Y-145132022D02*
X113192914Y-145227260D01*
X113192914Y-145227260D02*
X113240533Y-145322498D01*
X100708911Y-145114917D02*
X101470816Y-145114917D01*
X101089863Y-145495870D02*
X101089863Y-144733965D01*
X95382660Y-157583807D02*
X94582660Y-157583807D01*
X95382660Y-157126664D02*
X94925517Y-157469522D01*
X94582660Y-157126664D02*
X95039803Y-157583807D01*
X95458850Y-156974284D02*
X95458850Y-156364760D01*
X94582660Y-155945712D02*
X95154088Y-155945712D01*
X95154088Y-155945712D02*
X95268374Y-155983807D01*
X95268374Y-155983807D02*
X95344565Y-156059998D01*
X95344565Y-156059998D02*
X95382660Y-156174283D01*
X95382660Y-156174283D02*
X95382660Y-156250474D01*
X94582660Y-155412378D02*
X94582660Y-155259997D01*
X94582660Y-155259997D02*
X94620755Y-155183807D01*
X94620755Y-155183807D02*
X94696945Y-155107616D01*
X94696945Y-155107616D02*
X94849326Y-155069521D01*
X94849326Y-155069521D02*
X95115993Y-155069521D01*
X95115993Y-155069521D02*
X95268374Y-155107616D01*
X95268374Y-155107616D02*
X95344565Y-155183807D01*
X95344565Y-155183807D02*
X95382660Y-155259997D01*
X95382660Y-155259997D02*
X95382660Y-155412378D01*
X95382660Y-155412378D02*
X95344565Y-155488569D01*
X95344565Y-155488569D02*
X95268374Y-155564759D01*
X95268374Y-155564759D02*
X95115993Y-155602855D01*
X95115993Y-155602855D02*
X94849326Y-155602855D01*
X94849326Y-155602855D02*
X94696945Y-155564759D01*
X94696945Y-155564759D02*
X94620755Y-155488569D01*
X94620755Y-155488569D02*
X94582660Y-155412378D01*
X95001707Y-154574283D02*
X95382660Y-154574283D01*
X94582660Y-154840950D02*
X95001707Y-154574283D01*
X95001707Y-154574283D02*
X94582660Y-154307617D01*
X95306469Y-153583807D02*
X95344565Y-153621903D01*
X95344565Y-153621903D02*
X95382660Y-153736188D01*
X95382660Y-153736188D02*
X95382660Y-153812379D01*
X95382660Y-153812379D02*
X95344565Y-153926665D01*
X95344565Y-153926665D02*
X95268374Y-154002855D01*
X95268374Y-154002855D02*
X95192184Y-154040950D01*
X95192184Y-154040950D02*
X95039803Y-154079046D01*
X95039803Y-154079046D02*
X94925517Y-154079046D01*
X94925517Y-154079046D02*
X94773136Y-154040950D01*
X94773136Y-154040950D02*
X94696945Y-154002855D01*
X94696945Y-154002855D02*
X94620755Y-153926665D01*
X94620755Y-153926665D02*
X94582660Y-153812379D01*
X94582660Y-153812379D02*
X94582660Y-153736188D01*
X94582660Y-153736188D02*
X94620755Y-153621903D01*
X94620755Y-153621903D02*
X94658850Y-153583807D01*
X95154088Y-153279046D02*
X95154088Y-152898093D01*
X95382660Y-153355236D02*
X94582660Y-153088569D01*
X94582660Y-153088569D02*
X95382660Y-152821903D01*
X95382660Y-152555236D02*
X94582660Y-152555236D01*
X94582660Y-152555236D02*
X95382660Y-152098093D01*
X95382660Y-152098093D02*
X94582660Y-152098093D01*
X95382660Y-151298094D02*
X95382660Y-151755237D01*
X95382660Y-151526665D02*
X94582660Y-151526665D01*
X94582660Y-151526665D02*
X94696945Y-151602856D01*
X94696945Y-151602856D02*
X94773136Y-151679046D01*
X94773136Y-151679046D02*
X94811231Y-151755237D01*
X82639413Y-144373865D02*
X83401318Y-144373865D01*
X83020365Y-144754818D02*
X83020365Y-143992913D01*
X65624819Y-137333333D02*
X66339104Y-137333333D01*
X66339104Y-137333333D02*
X66481961Y-137380952D01*
X66481961Y-137380952D02*
X66577200Y-137476190D01*
X66577200Y-137476190D02*
X66624819Y-137619047D01*
X66624819Y-137619047D02*
X66624819Y-137714285D01*
X65624819Y-136952380D02*
X65624819Y-136333333D01*
X65624819Y-136333333D02*
X66005771Y-136666666D01*
X66005771Y-136666666D02*
X66005771Y-136523809D01*
X66005771Y-136523809D02*
X66053390Y-136428571D01*
X66053390Y-136428571D02*
X66101009Y-136380952D01*
X66101009Y-136380952D02*
X66196247Y-136333333D01*
X66196247Y-136333333D02*
X66434342Y-136333333D01*
X66434342Y-136333333D02*
X66529580Y-136380952D01*
X66529580Y-136380952D02*
X66577200Y-136428571D01*
X66577200Y-136428571D02*
X66624819Y-136523809D01*
X66624819Y-136523809D02*
X66624819Y-136809523D01*
X66624819Y-136809523D02*
X66577200Y-136904761D01*
X66577200Y-136904761D02*
X66529580Y-136952380D01*
X139262295Y-159312380D02*
X138462295Y-159312380D01*
X139262295Y-158855237D02*
X138805152Y-159198095D01*
X138462295Y-158855237D02*
X138919438Y-159312380D01*
X139338485Y-158702857D02*
X139338485Y-158093333D01*
X138843247Y-157636190D02*
X138881342Y-157521904D01*
X138881342Y-157521904D02*
X138919438Y-157483809D01*
X138919438Y-157483809D02*
X138995628Y-157445713D01*
X138995628Y-157445713D02*
X139109914Y-157445713D01*
X139109914Y-157445713D02*
X139186104Y-157483809D01*
X139186104Y-157483809D02*
X139224200Y-157521904D01*
X139224200Y-157521904D02*
X139262295Y-157598094D01*
X139262295Y-157598094D02*
X139262295Y-157902856D01*
X139262295Y-157902856D02*
X138462295Y-157902856D01*
X138462295Y-157902856D02*
X138462295Y-157636190D01*
X138462295Y-157636190D02*
X138500390Y-157559999D01*
X138500390Y-157559999D02*
X138538485Y-157521904D01*
X138538485Y-157521904D02*
X138614676Y-157483809D01*
X138614676Y-157483809D02*
X138690866Y-157483809D01*
X138690866Y-157483809D02*
X138767057Y-157521904D01*
X138767057Y-157521904D02*
X138805152Y-157559999D01*
X138805152Y-157559999D02*
X138843247Y-157636190D01*
X138843247Y-157636190D02*
X138843247Y-157902856D01*
X139262295Y-156645713D02*
X138881342Y-156912380D01*
X139262295Y-157102856D02*
X138462295Y-157102856D01*
X138462295Y-157102856D02*
X138462295Y-156798094D01*
X138462295Y-156798094D02*
X138500390Y-156721904D01*
X138500390Y-156721904D02*
X138538485Y-156683809D01*
X138538485Y-156683809D02*
X138614676Y-156645713D01*
X138614676Y-156645713D02*
X138728961Y-156645713D01*
X138728961Y-156645713D02*
X138805152Y-156683809D01*
X138805152Y-156683809D02*
X138843247Y-156721904D01*
X138843247Y-156721904D02*
X138881342Y-156798094D01*
X138881342Y-156798094D02*
X138881342Y-157102856D01*
X139033723Y-156340952D02*
X139033723Y-155959999D01*
X139262295Y-156417142D02*
X138462295Y-156150475D01*
X138462295Y-156150475D02*
X139262295Y-155883809D01*
X139262295Y-155617142D02*
X138462295Y-155617142D01*
X139262295Y-155159999D02*
X138805152Y-155502857D01*
X138462295Y-155159999D02*
X138919438Y-155617142D01*
X138843247Y-154817142D02*
X138843247Y-154550476D01*
X139262295Y-154436190D02*
X139262295Y-154817142D01*
X139262295Y-154817142D02*
X138462295Y-154817142D01*
X138462295Y-154817142D02*
X138462295Y-154436190D01*
X139338485Y-154283809D02*
X139338485Y-153674285D01*
X139186104Y-153026665D02*
X139224200Y-153064761D01*
X139224200Y-153064761D02*
X139262295Y-153179046D01*
X139262295Y-153179046D02*
X139262295Y-153255237D01*
X139262295Y-153255237D02*
X139224200Y-153369523D01*
X139224200Y-153369523D02*
X139148009Y-153445713D01*
X139148009Y-153445713D02*
X139071819Y-153483808D01*
X139071819Y-153483808D02*
X138919438Y-153521904D01*
X138919438Y-153521904D02*
X138805152Y-153521904D01*
X138805152Y-153521904D02*
X138652771Y-153483808D01*
X138652771Y-153483808D02*
X138576580Y-153445713D01*
X138576580Y-153445713D02*
X138500390Y-153369523D01*
X138500390Y-153369523D02*
X138462295Y-153255237D01*
X138462295Y-153255237D02*
X138462295Y-153179046D01*
X138462295Y-153179046D02*
X138500390Y-153064761D01*
X138500390Y-153064761D02*
X138538485Y-153026665D01*
X139033723Y-152721904D02*
X139033723Y-152340951D01*
X139262295Y-152798094D02*
X138462295Y-152531427D01*
X138462295Y-152531427D02*
X139262295Y-152264761D01*
X138462295Y-152112380D02*
X138462295Y-151655237D01*
X139262295Y-151883809D02*
X138462295Y-151883809D01*
X138538485Y-151426666D02*
X138500390Y-151388570D01*
X138500390Y-151388570D02*
X138462295Y-151312380D01*
X138462295Y-151312380D02*
X138462295Y-151121904D01*
X138462295Y-151121904D02*
X138500390Y-151045713D01*
X138500390Y-151045713D02*
X138538485Y-151007618D01*
X138538485Y-151007618D02*
X138614676Y-150969523D01*
X138614676Y-150969523D02*
X138690866Y-150969523D01*
X138690866Y-150969523D02*
X138805152Y-151007618D01*
X138805152Y-151007618D02*
X139262295Y-151464761D01*
X139262295Y-151464761D02*
X139262295Y-150969523D01*
X126519048Y-145073866D02*
X127280953Y-145073866D01*
X126900000Y-145454819D02*
X126900000Y-144692914D01*
X126642295Y-159312380D02*
X125842295Y-159312380D01*
X126642295Y-158855237D02*
X126185152Y-159198095D01*
X125842295Y-158855237D02*
X126299438Y-159312380D01*
X126718485Y-158702857D02*
X126718485Y-158093333D01*
X126223247Y-157636190D02*
X126261342Y-157521904D01*
X126261342Y-157521904D02*
X126299438Y-157483809D01*
X126299438Y-157483809D02*
X126375628Y-157445713D01*
X126375628Y-157445713D02*
X126489914Y-157445713D01*
X126489914Y-157445713D02*
X126566104Y-157483809D01*
X126566104Y-157483809D02*
X126604200Y-157521904D01*
X126604200Y-157521904D02*
X126642295Y-157598094D01*
X126642295Y-157598094D02*
X126642295Y-157902856D01*
X126642295Y-157902856D02*
X125842295Y-157902856D01*
X125842295Y-157902856D02*
X125842295Y-157636190D01*
X125842295Y-157636190D02*
X125880390Y-157559999D01*
X125880390Y-157559999D02*
X125918485Y-157521904D01*
X125918485Y-157521904D02*
X125994676Y-157483809D01*
X125994676Y-157483809D02*
X126070866Y-157483809D01*
X126070866Y-157483809D02*
X126147057Y-157521904D01*
X126147057Y-157521904D02*
X126185152Y-157559999D01*
X126185152Y-157559999D02*
X126223247Y-157636190D01*
X126223247Y-157636190D02*
X126223247Y-157902856D01*
X126642295Y-156645713D02*
X126261342Y-156912380D01*
X126642295Y-157102856D02*
X125842295Y-157102856D01*
X125842295Y-157102856D02*
X125842295Y-156798094D01*
X125842295Y-156798094D02*
X125880390Y-156721904D01*
X125880390Y-156721904D02*
X125918485Y-156683809D01*
X125918485Y-156683809D02*
X125994676Y-156645713D01*
X125994676Y-156645713D02*
X126108961Y-156645713D01*
X126108961Y-156645713D02*
X126185152Y-156683809D01*
X126185152Y-156683809D02*
X126223247Y-156721904D01*
X126223247Y-156721904D02*
X126261342Y-156798094D01*
X126261342Y-156798094D02*
X126261342Y-157102856D01*
X126413723Y-156340952D02*
X126413723Y-155959999D01*
X126642295Y-156417142D02*
X125842295Y-156150475D01*
X125842295Y-156150475D02*
X126642295Y-155883809D01*
X126642295Y-155617142D02*
X125842295Y-155617142D01*
X126642295Y-155159999D02*
X126185152Y-155502857D01*
X125842295Y-155159999D02*
X126299438Y-155617142D01*
X126223247Y-154817142D02*
X126223247Y-154550476D01*
X126642295Y-154436190D02*
X126642295Y-154817142D01*
X126642295Y-154817142D02*
X125842295Y-154817142D01*
X125842295Y-154817142D02*
X125842295Y-154436190D01*
X126718485Y-154283809D02*
X126718485Y-153674285D01*
X126566104Y-153026665D02*
X126604200Y-153064761D01*
X126604200Y-153064761D02*
X126642295Y-153179046D01*
X126642295Y-153179046D02*
X126642295Y-153255237D01*
X126642295Y-153255237D02*
X126604200Y-153369523D01*
X126604200Y-153369523D02*
X126528009Y-153445713D01*
X126528009Y-153445713D02*
X126451819Y-153483808D01*
X126451819Y-153483808D02*
X126299438Y-153521904D01*
X126299438Y-153521904D02*
X126185152Y-153521904D01*
X126185152Y-153521904D02*
X126032771Y-153483808D01*
X126032771Y-153483808D02*
X125956580Y-153445713D01*
X125956580Y-153445713D02*
X125880390Y-153369523D01*
X125880390Y-153369523D02*
X125842295Y-153255237D01*
X125842295Y-153255237D02*
X125842295Y-153179046D01*
X125842295Y-153179046D02*
X125880390Y-153064761D01*
X125880390Y-153064761D02*
X125918485Y-153026665D01*
X126413723Y-152721904D02*
X126413723Y-152340951D01*
X126642295Y-152798094D02*
X125842295Y-152531427D01*
X125842295Y-152531427D02*
X126642295Y-152264761D01*
X125842295Y-152112380D02*
X125842295Y-151655237D01*
X126642295Y-151883809D02*
X125842295Y-151883809D01*
X126642295Y-150969523D02*
X126642295Y-151426666D01*
X126642295Y-151198094D02*
X125842295Y-151198094D01*
X125842295Y-151198094D02*
X125956580Y-151274285D01*
X125956580Y-151274285D02*
X126032771Y-151350475D01*
X126032771Y-151350475D02*
X126070866Y-151426666D01*
X114899048Y-143073866D02*
X115660953Y-143073866D01*
X115280000Y-143454819D02*
X115280000Y-142692914D01*
X65454644Y-161664710D02*
X66168929Y-161664710D01*
X66168929Y-161664710D02*
X66311786Y-161712329D01*
X66311786Y-161712329D02*
X66407025Y-161807567D01*
X66407025Y-161807567D02*
X66454644Y-161950424D01*
X66454644Y-161950424D02*
X66454644Y-162045662D01*
X65454644Y-160759948D02*
X65454644Y-160950424D01*
X65454644Y-160950424D02*
X65502263Y-161045662D01*
X65502263Y-161045662D02*
X65549882Y-161093281D01*
X65549882Y-161093281D02*
X65692739Y-161188519D01*
X65692739Y-161188519D02*
X65883215Y-161236138D01*
X65883215Y-161236138D02*
X66264167Y-161236138D01*
X66264167Y-161236138D02*
X66359405Y-161188519D01*
X66359405Y-161188519D02*
X66407025Y-161140900D01*
X66407025Y-161140900D02*
X66454644Y-161045662D01*
X66454644Y-161045662D02*
X66454644Y-160855186D01*
X66454644Y-160855186D02*
X66407025Y-160759948D01*
X66407025Y-160759948D02*
X66359405Y-160712329D01*
X66359405Y-160712329D02*
X66264167Y-160664710D01*
X66264167Y-160664710D02*
X66026072Y-160664710D01*
X66026072Y-160664710D02*
X65930834Y-160712329D01*
X65930834Y-160712329D02*
X65883215Y-160759948D01*
X65883215Y-160759948D02*
X65835596Y-160855186D01*
X65835596Y-160855186D02*
X65835596Y-161045662D01*
X65835596Y-161045662D02*
X65883215Y-161140900D01*
X65883215Y-161140900D02*
X65930834Y-161188519D01*
X65930834Y-161188519D02*
X66026072Y-161236138D01*
X82746666Y-168784819D02*
X82746666Y-169499104D01*
X82746666Y-169499104D02*
X82699047Y-169641961D01*
X82699047Y-169641961D02*
X82603809Y-169737200D01*
X82603809Y-169737200D02*
X82460952Y-169784819D01*
X82460952Y-169784819D02*
X82365714Y-169784819D01*
X83699047Y-168784819D02*
X83222857Y-168784819D01*
X83222857Y-168784819D02*
X83175238Y-169261009D01*
X83175238Y-169261009D02*
X83222857Y-169213390D01*
X83222857Y-169213390D02*
X83318095Y-169165771D01*
X83318095Y-169165771D02*
X83556190Y-169165771D01*
X83556190Y-169165771D02*
X83651428Y-169213390D01*
X83651428Y-169213390D02*
X83699047Y-169261009D01*
X83699047Y-169261009D02*
X83746666Y-169356247D01*
X83746666Y-169356247D02*
X83746666Y-169594342D01*
X83746666Y-169594342D02*
X83699047Y-169689580D01*
X83699047Y-169689580D02*
X83651428Y-169737200D01*
X83651428Y-169737200D02*
X83556190Y-169784819D01*
X83556190Y-169784819D02*
X83318095Y-169784819D01*
X83318095Y-169784819D02*
X83222857Y-169737200D01*
X83222857Y-169737200D02*
X83175238Y-169689580D01*
D12*
X124264911Y-56715383D02*
X125811578Y-56715383D01*
X135314911Y-56965383D02*
X136861578Y-56965383D01*
X136088244Y-57738716D02*
X136088244Y-56192050D01*
D11*
X168457444Y-160838106D02*
X168457444Y-160571440D01*
X168876492Y-160457154D02*
X168876492Y-160838106D01*
X168876492Y-160838106D02*
X168076492Y-160838106D01*
X168076492Y-160838106D02*
X168076492Y-160457154D01*
X168838397Y-160152392D02*
X168876492Y-160038106D01*
X168876492Y-160038106D02*
X168876492Y-159847630D01*
X168876492Y-159847630D02*
X168838397Y-159771439D01*
X168838397Y-159771439D02*
X168800301Y-159733344D01*
X168800301Y-159733344D02*
X168724111Y-159695249D01*
X168724111Y-159695249D02*
X168647920Y-159695249D01*
X168647920Y-159695249D02*
X168571730Y-159733344D01*
X168571730Y-159733344D02*
X168533635Y-159771439D01*
X168533635Y-159771439D02*
X168495539Y-159847630D01*
X168495539Y-159847630D02*
X168457444Y-160000011D01*
X168457444Y-160000011D02*
X168419349Y-160076201D01*
X168419349Y-160076201D02*
X168381254Y-160114296D01*
X168381254Y-160114296D02*
X168305063Y-160152392D01*
X168305063Y-160152392D02*
X168228873Y-160152392D01*
X168228873Y-160152392D02*
X168152682Y-160114296D01*
X168152682Y-160114296D02*
X168114587Y-160076201D01*
X168114587Y-160076201D02*
X168076492Y-160000011D01*
X168076492Y-160000011D02*
X168076492Y-159809534D01*
X168076492Y-159809534D02*
X168114587Y-159695249D01*
X168076492Y-159466677D02*
X168076492Y-159009534D01*
X168876492Y-159238106D02*
X168076492Y-159238106D01*
X168076492Y-158590486D02*
X168076492Y-158438105D01*
X168076492Y-158438105D02*
X168114587Y-158361915D01*
X168114587Y-158361915D02*
X168190777Y-158285724D01*
X168190777Y-158285724D02*
X168343158Y-158247629D01*
X168343158Y-158247629D02*
X168609825Y-158247629D01*
X168609825Y-158247629D02*
X168762206Y-158285724D01*
X168762206Y-158285724D02*
X168838397Y-158361915D01*
X168838397Y-158361915D02*
X168876492Y-158438105D01*
X168876492Y-158438105D02*
X168876492Y-158590486D01*
X168876492Y-158590486D02*
X168838397Y-158666677D01*
X168838397Y-158666677D02*
X168762206Y-158742867D01*
X168762206Y-158742867D02*
X168609825Y-158780963D01*
X168609825Y-158780963D02*
X168343158Y-158780963D01*
X168343158Y-158780963D02*
X168190777Y-158742867D01*
X168190777Y-158742867D02*
X168114587Y-158666677D01*
X168114587Y-158666677D02*
X168076492Y-158590486D01*
X168876492Y-157904772D02*
X168076492Y-157904772D01*
X168076492Y-157904772D02*
X168076492Y-157600010D01*
X168076492Y-157600010D02*
X168114587Y-157523820D01*
X168114587Y-157523820D02*
X168152682Y-157485725D01*
X168152682Y-157485725D02*
X168228873Y-157447629D01*
X168228873Y-157447629D02*
X168343158Y-157447629D01*
X168343158Y-157447629D02*
X168419349Y-157485725D01*
X168419349Y-157485725D02*
X168457444Y-157523820D01*
X168457444Y-157523820D02*
X168495539Y-157600010D01*
X168495539Y-157600010D02*
X168495539Y-157904772D01*
X168952682Y-157295249D02*
X168952682Y-156685725D01*
X168800301Y-156038105D02*
X168838397Y-156076201D01*
X168838397Y-156076201D02*
X168876492Y-156190486D01*
X168876492Y-156190486D02*
X168876492Y-156266677D01*
X168876492Y-156266677D02*
X168838397Y-156380963D01*
X168838397Y-156380963D02*
X168762206Y-156457153D01*
X168762206Y-156457153D02*
X168686016Y-156495248D01*
X168686016Y-156495248D02*
X168533635Y-156533344D01*
X168533635Y-156533344D02*
X168419349Y-156533344D01*
X168419349Y-156533344D02*
X168266968Y-156495248D01*
X168266968Y-156495248D02*
X168190777Y-156457153D01*
X168190777Y-156457153D02*
X168114587Y-156380963D01*
X168114587Y-156380963D02*
X168076492Y-156266677D01*
X168076492Y-156266677D02*
X168076492Y-156190486D01*
X168076492Y-156190486D02*
X168114587Y-156076201D01*
X168114587Y-156076201D02*
X168152682Y-156038105D01*
X168076492Y-155542867D02*
X168076492Y-155390486D01*
X168076492Y-155390486D02*
X168114587Y-155314296D01*
X168114587Y-155314296D02*
X168190777Y-155238105D01*
X168190777Y-155238105D02*
X168343158Y-155200010D01*
X168343158Y-155200010D02*
X168609825Y-155200010D01*
X168609825Y-155200010D02*
X168762206Y-155238105D01*
X168762206Y-155238105D02*
X168838397Y-155314296D01*
X168838397Y-155314296D02*
X168876492Y-155390486D01*
X168876492Y-155390486D02*
X168876492Y-155542867D01*
X168876492Y-155542867D02*
X168838397Y-155619058D01*
X168838397Y-155619058D02*
X168762206Y-155695248D01*
X168762206Y-155695248D02*
X168609825Y-155733344D01*
X168609825Y-155733344D02*
X168343158Y-155733344D01*
X168343158Y-155733344D02*
X168190777Y-155695248D01*
X168190777Y-155695248D02*
X168114587Y-155619058D01*
X168114587Y-155619058D02*
X168076492Y-155542867D01*
X168876492Y-154857153D02*
X168076492Y-154857153D01*
X168076492Y-154857153D02*
X168647920Y-154590487D01*
X168647920Y-154590487D02*
X168076492Y-154323820D01*
X168076492Y-154323820D02*
X168876492Y-154323820D01*
X168952682Y-154133344D02*
X168952682Y-153523820D01*
X168876492Y-152876200D02*
X168495539Y-153142867D01*
X168876492Y-153333343D02*
X168076492Y-153333343D01*
X168076492Y-153333343D02*
X168076492Y-153028581D01*
X168076492Y-153028581D02*
X168114587Y-152952391D01*
X168114587Y-152952391D02*
X168152682Y-152914296D01*
X168152682Y-152914296D02*
X168228873Y-152876200D01*
X168228873Y-152876200D02*
X168343158Y-152876200D01*
X168343158Y-152876200D02*
X168419349Y-152914296D01*
X168419349Y-152914296D02*
X168457444Y-152952391D01*
X168457444Y-152952391D02*
X168495539Y-153028581D01*
X168495539Y-153028581D02*
X168495539Y-153333343D01*
X168457444Y-152533343D02*
X168457444Y-152266677D01*
X168876492Y-152152391D02*
X168876492Y-152533343D01*
X168876492Y-152533343D02*
X168076492Y-152533343D01*
X168076492Y-152533343D02*
X168076492Y-152152391D01*
X168876492Y-151428581D02*
X168876492Y-151809533D01*
X168876492Y-151809533D02*
X168076492Y-151809533D01*
X168647920Y-151200010D02*
X168647920Y-150819057D01*
X168876492Y-151276200D02*
X168076492Y-151009533D01*
X168076492Y-151009533D02*
X168876492Y-150742867D01*
X168495539Y-150323819D02*
X168876492Y-150323819D01*
X168076492Y-150590486D02*
X168495539Y-150323819D01*
X168495539Y-150323819D02*
X168076492Y-150057153D01*
X168152682Y-149828582D02*
X168114587Y-149790486D01*
X168114587Y-149790486D02*
X168076492Y-149714296D01*
X168076492Y-149714296D02*
X168076492Y-149523820D01*
X168076492Y-149523820D02*
X168114587Y-149447629D01*
X168114587Y-149447629D02*
X168152682Y-149409534D01*
X168152682Y-149409534D02*
X168228873Y-149371439D01*
X168228873Y-149371439D02*
X168305063Y-149371439D01*
X168305063Y-149371439D02*
X168419349Y-149409534D01*
X168419349Y-149409534D02*
X168876492Y-149866677D01*
X168876492Y-149866677D02*
X168876492Y-149371439D01*
X156133245Y-145037687D02*
X156895150Y-145037687D01*
X156514197Y-145418640D02*
X156514197Y-144656735D01*
X61440475Y-122609580D02*
X61392856Y-122657200D01*
X61392856Y-122657200D02*
X61249999Y-122704819D01*
X61249999Y-122704819D02*
X61154761Y-122704819D01*
X61154761Y-122704819D02*
X61011904Y-122657200D01*
X61011904Y-122657200D02*
X60916666Y-122561961D01*
X60916666Y-122561961D02*
X60869047Y-122466723D01*
X60869047Y-122466723D02*
X60821428Y-122276247D01*
X60821428Y-122276247D02*
X60821428Y-122133390D01*
X60821428Y-122133390D02*
X60869047Y-121942914D01*
X60869047Y-121942914D02*
X60916666Y-121847676D01*
X60916666Y-121847676D02*
X61011904Y-121752438D01*
X61011904Y-121752438D02*
X61154761Y-121704819D01*
X61154761Y-121704819D02*
X61249999Y-121704819D01*
X61249999Y-121704819D02*
X61392856Y-121752438D01*
X61392856Y-121752438D02*
X61440475Y-121800057D01*
X61630952Y-122800057D02*
X62392856Y-122800057D01*
X62583333Y-122657200D02*
X62726190Y-122704819D01*
X62726190Y-122704819D02*
X62964285Y-122704819D01*
X62964285Y-122704819D02*
X63059523Y-122657200D01*
X63059523Y-122657200D02*
X63107142Y-122609580D01*
X63107142Y-122609580D02*
X63154761Y-122514342D01*
X63154761Y-122514342D02*
X63154761Y-122419104D01*
X63154761Y-122419104D02*
X63107142Y-122323866D01*
X63107142Y-122323866D02*
X63059523Y-122276247D01*
X63059523Y-122276247D02*
X62964285Y-122228628D01*
X62964285Y-122228628D02*
X62773809Y-122181009D01*
X62773809Y-122181009D02*
X62678571Y-122133390D01*
X62678571Y-122133390D02*
X62630952Y-122085771D01*
X62630952Y-122085771D02*
X62583333Y-121990533D01*
X62583333Y-121990533D02*
X62583333Y-121895295D01*
X62583333Y-121895295D02*
X62630952Y-121800057D01*
X62630952Y-121800057D02*
X62678571Y-121752438D01*
X62678571Y-121752438D02*
X62773809Y-121704819D01*
X62773809Y-121704819D02*
X63011904Y-121704819D01*
X63011904Y-121704819D02*
X63154761Y-121752438D01*
X63440476Y-121704819D02*
X64011904Y-121704819D01*
X63726190Y-122704819D02*
X63726190Y-121704819D01*
X64345238Y-122181009D02*
X64678571Y-122181009D01*
X64821428Y-122704819D02*
X64345238Y-122704819D01*
X64345238Y-122704819D02*
X64345238Y-121704819D01*
X64345238Y-121704819D02*
X64821428Y-121704819D01*
X65250000Y-122181009D02*
X65583333Y-122181009D01*
X65726190Y-122704819D02*
X65250000Y-122704819D01*
X65250000Y-122704819D02*
X65250000Y-121704819D01*
X65250000Y-121704819D02*
X65726190Y-121704819D01*
X66726190Y-122704819D02*
X66392857Y-122228628D01*
X66154762Y-122704819D02*
X66154762Y-121704819D01*
X66154762Y-121704819D02*
X66535714Y-121704819D01*
X66535714Y-121704819D02*
X66630952Y-121752438D01*
X66630952Y-121752438D02*
X66678571Y-121800057D01*
X66678571Y-121800057D02*
X66726190Y-121895295D01*
X66726190Y-121895295D02*
X66726190Y-122038152D01*
X66726190Y-122038152D02*
X66678571Y-122133390D01*
X66678571Y-122133390D02*
X66630952Y-122181009D01*
X66630952Y-122181009D02*
X66535714Y-122228628D01*
X66535714Y-122228628D02*
X66154762Y-122228628D01*
X67678571Y-122704819D02*
X67107143Y-122704819D01*
X67392857Y-122704819D02*
X67392857Y-121704819D01*
X67392857Y-121704819D02*
X67297619Y-121847676D01*
X67297619Y-121847676D02*
X67202381Y-121942914D01*
X67202381Y-121942914D02*
X67107143Y-121990533D01*
X80642295Y-157698094D02*
X79842295Y-157698094D01*
X80642295Y-157240951D02*
X80185152Y-157583809D01*
X79842295Y-157240951D02*
X80299438Y-157698094D01*
X80718485Y-157088571D02*
X80718485Y-156479047D01*
X80223247Y-156288570D02*
X80223247Y-156021904D01*
X80642295Y-155907618D02*
X80642295Y-156288570D01*
X80642295Y-156288570D02*
X79842295Y-156288570D01*
X79842295Y-156288570D02*
X79842295Y-155907618D01*
X80566104Y-155107617D02*
X80604200Y-155145713D01*
X80604200Y-155145713D02*
X80642295Y-155259998D01*
X80642295Y-155259998D02*
X80642295Y-155336189D01*
X80642295Y-155336189D02*
X80604200Y-155450475D01*
X80604200Y-155450475D02*
X80528009Y-155526665D01*
X80528009Y-155526665D02*
X80451819Y-155564760D01*
X80451819Y-155564760D02*
X80299438Y-155602856D01*
X80299438Y-155602856D02*
X80185152Y-155602856D01*
X80185152Y-155602856D02*
X80032771Y-155564760D01*
X80032771Y-155564760D02*
X79956580Y-155526665D01*
X79956580Y-155526665D02*
X79880390Y-155450475D01*
X79880390Y-155450475D02*
X79842295Y-155336189D01*
X79842295Y-155336189D02*
X79842295Y-155259998D01*
X79842295Y-155259998D02*
X79880390Y-155145713D01*
X79880390Y-155145713D02*
X79918485Y-155107617D01*
X79842295Y-154764760D02*
X80489914Y-154764760D01*
X80489914Y-154764760D02*
X80566104Y-154726665D01*
X80566104Y-154726665D02*
X80604200Y-154688570D01*
X80604200Y-154688570D02*
X80642295Y-154612379D01*
X80642295Y-154612379D02*
X80642295Y-154459998D01*
X80642295Y-154459998D02*
X80604200Y-154383808D01*
X80604200Y-154383808D02*
X80566104Y-154345713D01*
X80566104Y-154345713D02*
X80489914Y-154307617D01*
X80489914Y-154307617D02*
X79842295Y-154307617D01*
X80566104Y-153469522D02*
X80604200Y-153507618D01*
X80604200Y-153507618D02*
X80642295Y-153621903D01*
X80642295Y-153621903D02*
X80642295Y-153698094D01*
X80642295Y-153698094D02*
X80604200Y-153812380D01*
X80604200Y-153812380D02*
X80528009Y-153888570D01*
X80528009Y-153888570D02*
X80451819Y-153926665D01*
X80451819Y-153926665D02*
X80299438Y-153964761D01*
X80299438Y-153964761D02*
X80185152Y-153964761D01*
X80185152Y-153964761D02*
X80032771Y-153926665D01*
X80032771Y-153926665D02*
X79956580Y-153888570D01*
X79956580Y-153888570D02*
X79880390Y-153812380D01*
X79880390Y-153812380D02*
X79842295Y-153698094D01*
X79842295Y-153698094D02*
X79842295Y-153621903D01*
X79842295Y-153621903D02*
X79880390Y-153507618D01*
X79880390Y-153507618D02*
X79918485Y-153469522D01*
X80413723Y-153164761D02*
X80413723Y-152783808D01*
X80642295Y-153240951D02*
X79842295Y-152974284D01*
X79842295Y-152974284D02*
X80642295Y-152707618D01*
X80642295Y-152440951D02*
X79842295Y-152440951D01*
X79842295Y-152440951D02*
X80642295Y-151983808D01*
X80642295Y-151983808D02*
X79842295Y-151983808D01*
X80642295Y-151183809D02*
X80642295Y-151640952D01*
X80642295Y-151412380D02*
X79842295Y-151412380D01*
X79842295Y-151412380D02*
X79956580Y-151488571D01*
X79956580Y-151488571D02*
X80032771Y-151564761D01*
X80032771Y-151564761D02*
X80070866Y-151640952D01*
X67899048Y-144373866D02*
X68660953Y-144373866D01*
X68280000Y-144754819D02*
X68280000Y-143992914D01*
X151673642Y-160874613D02*
X151673642Y-160607947D01*
X152092690Y-160493661D02*
X152092690Y-160874613D01*
X152092690Y-160874613D02*
X151292690Y-160874613D01*
X151292690Y-160874613D02*
X151292690Y-160493661D01*
X152054595Y-160188899D02*
X152092690Y-160074613D01*
X152092690Y-160074613D02*
X152092690Y-159884137D01*
X152092690Y-159884137D02*
X152054595Y-159807946D01*
X152054595Y-159807946D02*
X152016499Y-159769851D01*
X152016499Y-159769851D02*
X151940309Y-159731756D01*
X151940309Y-159731756D02*
X151864118Y-159731756D01*
X151864118Y-159731756D02*
X151787928Y-159769851D01*
X151787928Y-159769851D02*
X151749833Y-159807946D01*
X151749833Y-159807946D02*
X151711737Y-159884137D01*
X151711737Y-159884137D02*
X151673642Y-160036518D01*
X151673642Y-160036518D02*
X151635547Y-160112708D01*
X151635547Y-160112708D02*
X151597452Y-160150803D01*
X151597452Y-160150803D02*
X151521261Y-160188899D01*
X151521261Y-160188899D02*
X151445071Y-160188899D01*
X151445071Y-160188899D02*
X151368880Y-160150803D01*
X151368880Y-160150803D02*
X151330785Y-160112708D01*
X151330785Y-160112708D02*
X151292690Y-160036518D01*
X151292690Y-160036518D02*
X151292690Y-159846041D01*
X151292690Y-159846041D02*
X151330785Y-159731756D01*
X151292690Y-159503184D02*
X151292690Y-159046041D01*
X152092690Y-159274613D02*
X151292690Y-159274613D01*
X151292690Y-158626993D02*
X151292690Y-158474612D01*
X151292690Y-158474612D02*
X151330785Y-158398422D01*
X151330785Y-158398422D02*
X151406975Y-158322231D01*
X151406975Y-158322231D02*
X151559356Y-158284136D01*
X151559356Y-158284136D02*
X151826023Y-158284136D01*
X151826023Y-158284136D02*
X151978404Y-158322231D01*
X151978404Y-158322231D02*
X152054595Y-158398422D01*
X152054595Y-158398422D02*
X152092690Y-158474612D01*
X152092690Y-158474612D02*
X152092690Y-158626993D01*
X152092690Y-158626993D02*
X152054595Y-158703184D01*
X152054595Y-158703184D02*
X151978404Y-158779374D01*
X151978404Y-158779374D02*
X151826023Y-158817470D01*
X151826023Y-158817470D02*
X151559356Y-158817470D01*
X151559356Y-158817470D02*
X151406975Y-158779374D01*
X151406975Y-158779374D02*
X151330785Y-158703184D01*
X151330785Y-158703184D02*
X151292690Y-158626993D01*
X152092690Y-157941279D02*
X151292690Y-157941279D01*
X151292690Y-157941279D02*
X151292690Y-157636517D01*
X151292690Y-157636517D02*
X151330785Y-157560327D01*
X151330785Y-157560327D02*
X151368880Y-157522232D01*
X151368880Y-157522232D02*
X151445071Y-157484136D01*
X151445071Y-157484136D02*
X151559356Y-157484136D01*
X151559356Y-157484136D02*
X151635547Y-157522232D01*
X151635547Y-157522232D02*
X151673642Y-157560327D01*
X151673642Y-157560327D02*
X151711737Y-157636517D01*
X151711737Y-157636517D02*
X151711737Y-157941279D01*
X152168880Y-157331756D02*
X152168880Y-156722232D01*
X152016499Y-156074612D02*
X152054595Y-156112708D01*
X152054595Y-156112708D02*
X152092690Y-156226993D01*
X152092690Y-156226993D02*
X152092690Y-156303184D01*
X152092690Y-156303184D02*
X152054595Y-156417470D01*
X152054595Y-156417470D02*
X151978404Y-156493660D01*
X151978404Y-156493660D02*
X151902214Y-156531755D01*
X151902214Y-156531755D02*
X151749833Y-156569851D01*
X151749833Y-156569851D02*
X151635547Y-156569851D01*
X151635547Y-156569851D02*
X151483166Y-156531755D01*
X151483166Y-156531755D02*
X151406975Y-156493660D01*
X151406975Y-156493660D02*
X151330785Y-156417470D01*
X151330785Y-156417470D02*
X151292690Y-156303184D01*
X151292690Y-156303184D02*
X151292690Y-156226993D01*
X151292690Y-156226993D02*
X151330785Y-156112708D01*
X151330785Y-156112708D02*
X151368880Y-156074612D01*
X151292690Y-155579374D02*
X151292690Y-155426993D01*
X151292690Y-155426993D02*
X151330785Y-155350803D01*
X151330785Y-155350803D02*
X151406975Y-155274612D01*
X151406975Y-155274612D02*
X151559356Y-155236517D01*
X151559356Y-155236517D02*
X151826023Y-155236517D01*
X151826023Y-155236517D02*
X151978404Y-155274612D01*
X151978404Y-155274612D02*
X152054595Y-155350803D01*
X152054595Y-155350803D02*
X152092690Y-155426993D01*
X152092690Y-155426993D02*
X152092690Y-155579374D01*
X152092690Y-155579374D02*
X152054595Y-155655565D01*
X152054595Y-155655565D02*
X151978404Y-155731755D01*
X151978404Y-155731755D02*
X151826023Y-155769851D01*
X151826023Y-155769851D02*
X151559356Y-155769851D01*
X151559356Y-155769851D02*
X151406975Y-155731755D01*
X151406975Y-155731755D02*
X151330785Y-155655565D01*
X151330785Y-155655565D02*
X151292690Y-155579374D01*
X152092690Y-154893660D02*
X151292690Y-154893660D01*
X151292690Y-154893660D02*
X151864118Y-154626994D01*
X151864118Y-154626994D02*
X151292690Y-154360327D01*
X151292690Y-154360327D02*
X152092690Y-154360327D01*
X152168880Y-154169851D02*
X152168880Y-153560327D01*
X152092690Y-152912707D02*
X151711737Y-153179374D01*
X152092690Y-153369850D02*
X151292690Y-153369850D01*
X151292690Y-153369850D02*
X151292690Y-153065088D01*
X151292690Y-153065088D02*
X151330785Y-152988898D01*
X151330785Y-152988898D02*
X151368880Y-152950803D01*
X151368880Y-152950803D02*
X151445071Y-152912707D01*
X151445071Y-152912707D02*
X151559356Y-152912707D01*
X151559356Y-152912707D02*
X151635547Y-152950803D01*
X151635547Y-152950803D02*
X151673642Y-152988898D01*
X151673642Y-152988898D02*
X151711737Y-153065088D01*
X151711737Y-153065088D02*
X151711737Y-153369850D01*
X151673642Y-152569850D02*
X151673642Y-152303184D01*
X152092690Y-152188898D02*
X152092690Y-152569850D01*
X152092690Y-152569850D02*
X151292690Y-152569850D01*
X151292690Y-152569850D02*
X151292690Y-152188898D01*
X152092690Y-151465088D02*
X152092690Y-151846040D01*
X152092690Y-151846040D02*
X151292690Y-151846040D01*
X151864118Y-151236517D02*
X151864118Y-150855564D01*
X152092690Y-151312707D02*
X151292690Y-151046040D01*
X151292690Y-151046040D02*
X152092690Y-150779374D01*
X151711737Y-150360326D02*
X152092690Y-150360326D01*
X151292690Y-150626993D02*
X151711737Y-150360326D01*
X151711737Y-150360326D02*
X151292690Y-150093660D01*
X152092690Y-149407946D02*
X152092690Y-149865089D01*
X152092690Y-149636517D02*
X151292690Y-149636517D01*
X151292690Y-149636517D02*
X151406975Y-149712708D01*
X151406975Y-149712708D02*
X151483166Y-149788898D01*
X151483166Y-149788898D02*
X151521261Y-149865089D01*
X139349443Y-145074194D02*
X140111348Y-145074194D01*
X139730395Y-145455147D02*
X139730395Y-144693242D01*
X134833333Y-93859580D02*
X134785714Y-93907200D01*
X134785714Y-93907200D02*
X134642857Y-93954819D01*
X134642857Y-93954819D02*
X134547619Y-93954819D01*
X134547619Y-93954819D02*
X134404762Y-93907200D01*
X134404762Y-93907200D02*
X134309524Y-93811961D01*
X134309524Y-93811961D02*
X134261905Y-93716723D01*
X134261905Y-93716723D02*
X134214286Y-93526247D01*
X134214286Y-93526247D02*
X134214286Y-93383390D01*
X134214286Y-93383390D02*
X134261905Y-93192914D01*
X134261905Y-93192914D02*
X134309524Y-93097676D01*
X134309524Y-93097676D02*
X134404762Y-93002438D01*
X134404762Y-93002438D02*
X134547619Y-92954819D01*
X134547619Y-92954819D02*
X134642857Y-92954819D01*
X134642857Y-92954819D02*
X134785714Y-93002438D01*
X134785714Y-93002438D02*
X134833333Y-93050057D01*
X135785714Y-93954819D02*
X135214286Y-93954819D01*
X135500000Y-93954819D02*
X135500000Y-92954819D01*
X135500000Y-92954819D02*
X135404762Y-93097676D01*
X135404762Y-93097676D02*
X135309524Y-93192914D01*
X135309524Y-93192914D02*
X135214286Y-93240533D01*
D13*
X137257142Y-91264140D02*
X137942857Y-91264140D01*
X137599999Y-91606997D02*
X137599999Y-90921282D01*
D11*
X61690475Y-108359580D02*
X61642856Y-108407200D01*
X61642856Y-108407200D02*
X61499999Y-108454819D01*
X61499999Y-108454819D02*
X61404761Y-108454819D01*
X61404761Y-108454819D02*
X61261904Y-108407200D01*
X61261904Y-108407200D02*
X61166666Y-108311961D01*
X61166666Y-108311961D02*
X61119047Y-108216723D01*
X61119047Y-108216723D02*
X61071428Y-108026247D01*
X61071428Y-108026247D02*
X61071428Y-107883390D01*
X61071428Y-107883390D02*
X61119047Y-107692914D01*
X61119047Y-107692914D02*
X61166666Y-107597676D01*
X61166666Y-107597676D02*
X61261904Y-107502438D01*
X61261904Y-107502438D02*
X61404761Y-107454819D01*
X61404761Y-107454819D02*
X61499999Y-107454819D01*
X61499999Y-107454819D02*
X61642856Y-107502438D01*
X61642856Y-107502438D02*
X61690475Y-107550057D01*
X61880952Y-108550057D02*
X62642856Y-108550057D01*
X62833333Y-108407200D02*
X62976190Y-108454819D01*
X62976190Y-108454819D02*
X63214285Y-108454819D01*
X63214285Y-108454819D02*
X63309523Y-108407200D01*
X63309523Y-108407200D02*
X63357142Y-108359580D01*
X63357142Y-108359580D02*
X63404761Y-108264342D01*
X63404761Y-108264342D02*
X63404761Y-108169104D01*
X63404761Y-108169104D02*
X63357142Y-108073866D01*
X63357142Y-108073866D02*
X63309523Y-108026247D01*
X63309523Y-108026247D02*
X63214285Y-107978628D01*
X63214285Y-107978628D02*
X63023809Y-107931009D01*
X63023809Y-107931009D02*
X62928571Y-107883390D01*
X62928571Y-107883390D02*
X62880952Y-107835771D01*
X62880952Y-107835771D02*
X62833333Y-107740533D01*
X62833333Y-107740533D02*
X62833333Y-107645295D01*
X62833333Y-107645295D02*
X62880952Y-107550057D01*
X62880952Y-107550057D02*
X62928571Y-107502438D01*
X62928571Y-107502438D02*
X63023809Y-107454819D01*
X63023809Y-107454819D02*
X63261904Y-107454819D01*
X63261904Y-107454819D02*
X63404761Y-107502438D01*
X63690476Y-107454819D02*
X64261904Y-107454819D01*
X63976190Y-108454819D02*
X63976190Y-107454819D01*
X64595238Y-107931009D02*
X64928571Y-107931009D01*
X65071428Y-108454819D02*
X64595238Y-108454819D01*
X64595238Y-108454819D02*
X64595238Y-107454819D01*
X64595238Y-107454819D02*
X65071428Y-107454819D01*
X65500000Y-107931009D02*
X65833333Y-107931009D01*
X65976190Y-108454819D02*
X65500000Y-108454819D01*
X65500000Y-108454819D02*
X65500000Y-107454819D01*
X65500000Y-107454819D02*
X65976190Y-107454819D01*
X66976190Y-108454819D02*
X66642857Y-107978628D01*
X66404762Y-108454819D02*
X66404762Y-107454819D01*
X66404762Y-107454819D02*
X66785714Y-107454819D01*
X66785714Y-107454819D02*
X66880952Y-107502438D01*
X66880952Y-107502438D02*
X66928571Y-107550057D01*
X66928571Y-107550057D02*
X66976190Y-107645295D01*
X66976190Y-107645295D02*
X66976190Y-107788152D01*
X66976190Y-107788152D02*
X66928571Y-107883390D01*
X66928571Y-107883390D02*
X66880952Y-107931009D01*
X66880952Y-107931009D02*
X66785714Y-107978628D01*
X66785714Y-107978628D02*
X66404762Y-107978628D01*
X67357143Y-107550057D02*
X67404762Y-107502438D01*
X67404762Y-107502438D02*
X67500000Y-107454819D01*
X67500000Y-107454819D02*
X67738095Y-107454819D01*
X67738095Y-107454819D02*
X67833333Y-107502438D01*
X67833333Y-107502438D02*
X67880952Y-107550057D01*
X67880952Y-107550057D02*
X67928571Y-107645295D01*
X67928571Y-107645295D02*
X67928571Y-107740533D01*
X67928571Y-107740533D02*
X67880952Y-107883390D01*
X67880952Y-107883390D02*
X67309524Y-108454819D01*
X67309524Y-108454819D02*
X67928571Y-108454819D01*
D14*
X134740000Y-139740000D02*
X137425000Y-139740000D01*
X137425000Y-137820000D02*
X134740000Y-137820000D01*
X137425000Y-139740000D02*
X137425000Y-137820000D01*
D11*
X75530000Y-140350000D02*
X77280000Y-140350000D01*
X75530000Y-141810000D02*
X77280000Y-141810000D01*
X75930000Y-140350000D02*
X75930000Y-141810000D01*
X77280000Y-140350000D02*
X77280000Y-140550000D01*
X77280000Y-141810000D02*
X77280000Y-141600000D01*
D15*
X75180000Y-141730000D02*
G75*
G02*
X75120000Y-141730000I-30000J0D01*
G01*
X75120000Y-141730000D02*
G75*
G02*
X75180000Y-141730000I30000J0D01*
G01*
D16*
G36*
X75604995Y-140630115D02*
G01*
X75300221Y-140630115D01*
X75300221Y-140277690D01*
X75604995Y-140277690D01*
X75604995Y-140630115D01*
G37*
G36*
X75604995Y-141882538D02*
G01*
X75300221Y-141882538D01*
X75300221Y-141530139D01*
X75604995Y-141530139D01*
X75604995Y-141882538D01*
G37*
D14*
X66120000Y-51780000D02*
X114200000Y-51780000D01*
X66120000Y-61820000D02*
X66120000Y-51780000D01*
X114800000Y-51780000D02*
X117160000Y-51780000D01*
X117160000Y-51780000D02*
X117160000Y-61820000D01*
X117160000Y-52400000D02*
X66120000Y-52400000D01*
X117160000Y-53900000D02*
X66120000Y-53900000D01*
X117160000Y-58800000D02*
X66120000Y-58800000D01*
X117160000Y-61820000D02*
X66120000Y-61820000D01*
X114500000Y-51780000D02*
X114060000Y-51170000D01*
X114940000Y-51170000D01*
X114500000Y-51780000D01*
G36*
X114500000Y-51780000D02*
G01*
X114060000Y-51170000D01*
X114940000Y-51170000D01*
X114500000Y-51780000D01*
G37*
X102582500Y-130040000D02*
X102582500Y-131960000D01*
X102582500Y-131960000D02*
X105267500Y-131960000D01*
X105267500Y-130040000D02*
X102582500Y-130040000D01*
X140565000Y-171935000D02*
X140565000Y-175010000D01*
X140565000Y-175010000D02*
X165435000Y-175010000D01*
X141985000Y-170420000D02*
X141985000Y-170920000D01*
X141985000Y-170920000D02*
X164015000Y-170920000D01*
X142005000Y-170420000D02*
X141985000Y-170420000D01*
X164015000Y-170420000D02*
X163995000Y-170420000D01*
X164015000Y-170920000D02*
X164015000Y-170420000D01*
X165435000Y-175010000D02*
X165435000Y-171935000D01*
X142677459Y-138045328D02*
X142223331Y-138045328D01*
X142677459Y-139515328D02*
X142223331Y-139515328D01*
X72607064Y-138345000D02*
X72152936Y-138345000D01*
X72607064Y-139815000D02*
X72152936Y-139815000D01*
X98730000Y-76940000D02*
X98730000Y-93140000D01*
X98730000Y-93140000D02*
X105670000Y-93140000D01*
X100200000Y-86640000D02*
X100200000Y-83440000D01*
X102200000Y-85790000D02*
X102200000Y-84290000D01*
X104200000Y-83440000D02*
X104200000Y-86640000D01*
X105670000Y-76940000D02*
X98730000Y-76940000D01*
X105670000Y-93140000D02*
X105670000Y-76940000D01*
X72639564Y-133265000D02*
X72185436Y-133265000D01*
X72639564Y-134735000D02*
X72185436Y-134735000D01*
X99602500Y-72315000D02*
X99602500Y-75000000D01*
X101522500Y-72315000D02*
X99602500Y-72315000D01*
X101522500Y-75000000D02*
X101522500Y-72315000D01*
X118120000Y-68620000D02*
X119500000Y-68620000D01*
X118120000Y-70000000D02*
X118120000Y-68620000D01*
X118120000Y-71270000D02*
X118120000Y-84080000D01*
X118120000Y-71270000D02*
X120770000Y-71270000D01*
X118120000Y-84080000D02*
X123420000Y-84080000D01*
X120770000Y-68620000D02*
X123420000Y-68620000D01*
X120770000Y-71270000D02*
X120770000Y-68620000D01*
X123420000Y-68620000D02*
X123420000Y-84080000D01*
D11*
X134827500Y-141050000D02*
X136577500Y-141050000D01*
X134827500Y-142510000D02*
X136577500Y-142510000D01*
X135227500Y-141050000D02*
X135227500Y-142510000D01*
X136577500Y-141050000D02*
X136577500Y-141250000D01*
X136577500Y-142510000D02*
X136577500Y-142300000D01*
D15*
X134477500Y-142430000D02*
G75*
G02*
X134417500Y-142430000I-30000J0D01*
G01*
X134417500Y-142430000D02*
G75*
G02*
X134477500Y-142430000I30000J0D01*
G01*
D16*
G36*
X134902495Y-141330115D02*
G01*
X134597721Y-141330115D01*
X134597721Y-140977690D01*
X134902495Y-140977690D01*
X134902495Y-141330115D01*
G37*
G36*
X134902495Y-142582538D02*
G01*
X134597721Y-142582538D01*
X134597721Y-142230139D01*
X134902495Y-142230139D01*
X134902495Y-142582538D01*
G37*
D14*
X76802500Y-131527500D02*
X78322500Y-131527500D01*
X76802500Y-131577500D02*
X76802500Y-131527500D01*
X76802500Y-133477500D02*
X76802500Y-132697500D01*
X76802500Y-134647500D02*
X76802500Y-134597500D01*
X78322500Y-131527500D02*
X78322500Y-132527500D01*
X78322500Y-133647500D02*
X78322500Y-134647500D01*
X78322500Y-134647500D02*
X76802500Y-134647500D01*
X76262500Y-132707500D02*
X76502500Y-133037500D01*
X76022500Y-133037500D01*
X76262500Y-132707500D01*
G36*
X76502500Y-133037500D02*
G01*
X76022500Y-133037500D01*
X76262500Y-132707500D01*
X76502500Y-133037500D01*
G37*
X101565000Y-171935000D02*
X101565000Y-175010000D01*
X101565000Y-175010000D02*
X126435000Y-175010000D01*
X102985000Y-170420000D02*
X102985000Y-170920000D01*
X102985000Y-170920000D02*
X125015000Y-170920000D01*
X103005000Y-170420000D02*
X102985000Y-170420000D01*
X125015000Y-170420000D02*
X124995000Y-170420000D01*
X125015000Y-170920000D02*
X125015000Y-170420000D01*
X126435000Y-175010000D02*
X126435000Y-171935000D01*
X147450395Y-139740328D02*
X150135395Y-139740328D01*
X150135395Y-137820328D02*
X147450395Y-137820328D01*
X150135395Y-139740328D02*
X150135395Y-137820328D01*
D11*
X153181697Y-145063821D02*
X153181697Y-146813821D01*
X153181697Y-146813821D02*
X153391697Y-146813821D01*
X154641697Y-145063821D02*
X154641697Y-146813821D01*
X154641697Y-145463821D02*
X153181697Y-145463821D01*
X154641697Y-146813821D02*
X154441697Y-146813821D01*
D15*
X153291697Y-144683821D02*
G75*
G02*
X153231697Y-144683821I-30000J0D01*
G01*
X153231697Y-144683821D02*
G75*
G02*
X153291697Y-144683821I30000J0D01*
G01*
D16*
G36*
X153461558Y-145138816D02*
G01*
X153109159Y-145138816D01*
X153109159Y-144834042D01*
X153461558Y-144834042D01*
X153461558Y-145138816D01*
G37*
G36*
X154714007Y-145138816D02*
G01*
X154361582Y-145138816D01*
X154361582Y-144834042D01*
X154714007Y-144834042D01*
X154714007Y-145138816D01*
G37*
D11*
X127150000Y-66000000D02*
X127150000Y-71960000D01*
X127150000Y-71960000D02*
X133850000Y-71960000D01*
X133850000Y-66000000D02*
X133850000Y-71960000D01*
D15*
X127260000Y-74640000D02*
G75*
G02*
X127200000Y-74640000I-30000J0D01*
G01*
X127200000Y-74640000D02*
G75*
G02*
X127260000Y-74640000I30000J0D01*
G01*
D14*
X78765000Y-69014564D02*
X78765000Y-68560436D01*
X80235000Y-69014564D02*
X80235000Y-68560436D01*
X85422936Y-129265000D02*
X85877064Y-129265000D01*
X85422936Y-130735000D02*
X85877064Y-130735000D01*
X67540000Y-72377500D02*
X67540000Y-75062500D01*
X69460000Y-72377500D02*
X67540000Y-72377500D01*
X69460000Y-75062500D02*
X69460000Y-72377500D01*
X105227064Y-138087500D02*
X104772936Y-138087500D01*
X105227064Y-139557500D02*
X104772936Y-139557500D01*
X87811892Y-137240338D02*
X87357764Y-137240338D01*
X87811892Y-138710338D02*
X87357764Y-138710338D01*
X137310000Y-62900000D02*
X137310000Y-79100000D01*
X137310000Y-79100000D02*
X144250000Y-79100000D01*
X138780000Y-72600000D02*
X138780000Y-69400000D01*
X140780000Y-71750000D02*
X140780000Y-70250000D01*
X142780000Y-69400000D02*
X142780000Y-72600000D01*
X144250000Y-62900000D02*
X137310000Y-62900000D01*
X144250000Y-79100000D02*
X144250000Y-62900000D01*
X89765000Y-69314564D02*
X89765000Y-68860436D01*
X91235000Y-69314564D02*
X91235000Y-68860436D01*
D11*
X103430000Y-128270000D02*
X103430000Y-128480000D01*
X103430000Y-129730000D02*
X103430000Y-129530000D01*
X104780000Y-129730000D02*
X104780000Y-128270000D01*
X105180000Y-128270000D02*
X103430000Y-128270000D01*
X105180000Y-129730000D02*
X103430000Y-129730000D01*
D15*
X105590000Y-128350000D02*
G75*
G02*
X105530000Y-128350000I-30000J0D01*
G01*
X105530000Y-128350000D02*
G75*
G02*
X105590000Y-128350000I30000J0D01*
G01*
D16*
G36*
X105409779Y-128549861D02*
G01*
X105105005Y-128549861D01*
X105105005Y-128197462D01*
X105409779Y-128197462D01*
X105409779Y-128549861D01*
G37*
G36*
X105409779Y-129802310D02*
G01*
X105105005Y-129802310D01*
X105105005Y-129449885D01*
X105409779Y-129449885D01*
X105409779Y-129802310D01*
G37*
D14*
X101789863Y-143671051D02*
X101789863Y-164191051D01*
X101789863Y-164191051D02*
X112209863Y-164191051D01*
X103189863Y-146311051D02*
X103189863Y-147581051D01*
X103189863Y-147581051D02*
X105729863Y-147581051D01*
X104459863Y-152661051D02*
X106364863Y-152661051D01*
X104459863Y-157741051D02*
X105094863Y-157741051D01*
X104459863Y-162821051D02*
X105094863Y-162821051D01*
X105094863Y-157741051D02*
X105094863Y-158757051D01*
X105094863Y-158757051D02*
X104713863Y-158376051D01*
X105094863Y-158757051D02*
X105475863Y-158376051D01*
X105094863Y-161805051D02*
X104713863Y-162186051D01*
X105094863Y-161805051D02*
X105094863Y-162821051D01*
X105094863Y-161805051D02*
X105475863Y-162186051D01*
X105729863Y-147071051D02*
X108269863Y-147071051D01*
X105729863Y-147581051D02*
X105729863Y-147071051D01*
X105729863Y-148091051D02*
X105729863Y-147581051D01*
X106364863Y-152661051D02*
X106364863Y-160281051D01*
X106364863Y-160281051D02*
X105094863Y-159011051D01*
X106491863Y-143671051D02*
X101789863Y-143671051D01*
X106491863Y-147071051D02*
X107507863Y-148091051D01*
X107634863Y-152661051D02*
X107634863Y-160281051D01*
X107634863Y-160281051D02*
X108904863Y-159011051D01*
X108269863Y-147071051D02*
X108269863Y-147581051D01*
X108269863Y-147581051D02*
X108269863Y-148091051D01*
X108269863Y-147581051D02*
X110809863Y-147581051D01*
X108269863Y-148091051D02*
X105729863Y-148091051D01*
X108904863Y-157741051D02*
X108904863Y-158757051D01*
X108904863Y-158757051D02*
X108523863Y-158376051D01*
X108904863Y-158757051D02*
X109285863Y-158376051D01*
X108904863Y-161805051D02*
X108523863Y-162186051D01*
X108904863Y-161805051D02*
X108904863Y-162821051D01*
X108904863Y-161805051D02*
X109285863Y-162186051D01*
X109539863Y-152661051D02*
X107634863Y-152661051D01*
X109539863Y-157741051D02*
X108904863Y-157741051D01*
X109539863Y-162821051D02*
X108904863Y-162821051D01*
X110809863Y-147581051D02*
X110809863Y-146311051D01*
X112209863Y-143671051D02*
X107507863Y-143671051D01*
X112209863Y-164191051D02*
X112209863Y-143671051D01*
D11*
X106494863Y-160281051D02*
G75*
G02*
X106234863Y-160281051I-130000J0D01*
G01*
X106234863Y-160281051D02*
G75*
G02*
X106494863Y-160281051I130000J0D01*
G01*
X107764863Y-160281051D02*
G75*
G02*
X107504863Y-160281051I-130000J0D01*
G01*
X107504863Y-160281051D02*
G75*
G02*
X107764863Y-160281051I130000J0D01*
G01*
D14*
X106999863Y-143671051D02*
X106799863Y-143331640D01*
X107199863Y-143331640D01*
X106999863Y-143671051D01*
G36*
X106999863Y-143671051D02*
G01*
X106799863Y-143331640D01*
X107199863Y-143331640D01*
X106999863Y-143671051D01*
G37*
D17*
X99100000Y-114050000D02*
X104400000Y-114050000D01*
X99100000Y-126800000D02*
X99100000Y-114050000D01*
X104400000Y-94800000D02*
X124250000Y-94800000D01*
X104400000Y-114050000D02*
X104400000Y-94800000D01*
X124250000Y-94800000D02*
X124250000Y-109050000D01*
X124250000Y-109050000D02*
X126700000Y-109050000D01*
X126700000Y-109050000D02*
X126700000Y-126800000D01*
X126700000Y-126800000D02*
X99100000Y-126800000D01*
D14*
X83720365Y-142929999D02*
X83720365Y-163449999D01*
X83720365Y-163449999D02*
X94140365Y-163449999D01*
X85120365Y-145569999D02*
X85120365Y-146839999D01*
X85120365Y-146839999D02*
X87660365Y-146839999D01*
X86390365Y-151919999D02*
X88295365Y-151919999D01*
X86390365Y-156999999D02*
X87025365Y-156999999D01*
X86390365Y-162079999D02*
X87025365Y-162079999D01*
X87025365Y-156999999D02*
X87025365Y-158015999D01*
X87025365Y-158015999D02*
X86644365Y-157634999D01*
X87025365Y-158015999D02*
X87406365Y-157634999D01*
X87025365Y-161063999D02*
X86644365Y-161444999D01*
X87025365Y-161063999D02*
X87025365Y-162079999D01*
X87025365Y-161063999D02*
X87406365Y-161444999D01*
X87660365Y-146329999D02*
X90200365Y-146329999D01*
X87660365Y-146839999D02*
X87660365Y-146329999D01*
X87660365Y-147349999D02*
X87660365Y-146839999D01*
X88295365Y-151919999D02*
X88295365Y-159539999D01*
X88295365Y-159539999D02*
X87025365Y-158269999D01*
X88422365Y-142929999D02*
X83720365Y-142929999D01*
X88422365Y-146329999D02*
X89438365Y-147349999D01*
X89565365Y-151919999D02*
X89565365Y-159539999D01*
X89565365Y-159539999D02*
X90835365Y-158269999D01*
X90200365Y-146329999D02*
X90200365Y-146839999D01*
X90200365Y-146839999D02*
X90200365Y-147349999D01*
X90200365Y-146839999D02*
X92740365Y-146839999D01*
X90200365Y-147349999D02*
X87660365Y-147349999D01*
X90835365Y-156999999D02*
X90835365Y-158015999D01*
X90835365Y-158015999D02*
X90454365Y-157634999D01*
X90835365Y-158015999D02*
X91216365Y-157634999D01*
X90835365Y-161063999D02*
X90454365Y-161444999D01*
X90835365Y-161063999D02*
X90835365Y-162079999D01*
X90835365Y-161063999D02*
X91216365Y-161444999D01*
X91470365Y-151919999D02*
X89565365Y-151919999D01*
X91470365Y-156999999D02*
X90835365Y-156999999D01*
X91470365Y-162079999D02*
X90835365Y-162079999D01*
X92740365Y-146839999D02*
X92740365Y-145569999D01*
X94140365Y-142929999D02*
X89438365Y-142929999D01*
X94140365Y-163449999D02*
X94140365Y-142929999D01*
D11*
X88425365Y-159539999D02*
G75*
G02*
X88165365Y-159539999I-130000J0D01*
G01*
X88165365Y-159539999D02*
G75*
G02*
X88425365Y-159539999I130000J0D01*
G01*
X89695365Y-159539999D02*
G75*
G02*
X89435365Y-159539999I-130000J0D01*
G01*
X89435365Y-159539999D02*
G75*
G02*
X89695365Y-159539999I130000J0D01*
G01*
D14*
X88930365Y-142929999D02*
X88730365Y-142590588D01*
X89130365Y-142590588D01*
X88930365Y-142929999D01*
G36*
X88930365Y-142929999D02*
G01*
X88730365Y-142590588D01*
X89130365Y-142590588D01*
X88930365Y-142929999D01*
G37*
X127765000Y-78860436D02*
X127765000Y-79314564D01*
X129235000Y-78860436D02*
X129235000Y-79314564D01*
X88730000Y-76940000D02*
X88730000Y-93140000D01*
X88730000Y-93140000D02*
X95670000Y-93140000D01*
X90200000Y-86640000D02*
X90200000Y-83440000D01*
X92200000Y-85790000D02*
X92200000Y-84290000D01*
X94200000Y-83440000D02*
X94200000Y-86640000D01*
X95670000Y-76940000D02*
X88730000Y-76940000D01*
X95670000Y-93140000D02*
X95670000Y-76940000D01*
X78330000Y-76860000D02*
X78330000Y-93060000D01*
X78330000Y-93060000D02*
X85270000Y-93060000D01*
X79800000Y-86560000D02*
X79800000Y-83360000D01*
X81800000Y-84210000D02*
X81800000Y-85710000D01*
X83800000Y-83360000D02*
X83800000Y-86560000D01*
X85270000Y-76860000D02*
X78330000Y-76860000D01*
X85270000Y-93060000D02*
X85270000Y-76860000D01*
X67330000Y-76860000D02*
X67330000Y-93060000D01*
X67330000Y-93060000D02*
X74270000Y-93060000D01*
X68800000Y-86560000D02*
X68800000Y-83360000D01*
X70800000Y-84210000D02*
X70800000Y-85710000D01*
X72800000Y-83360000D02*
X72800000Y-86560000D01*
X74270000Y-76860000D02*
X67330000Y-76860000D01*
X74270000Y-93060000D02*
X74270000Y-76860000D01*
X89314564Y-166345000D02*
X88860436Y-166345000D01*
X89314564Y-167815000D02*
X88860436Y-167815000D01*
X60490000Y-127565000D02*
X60490000Y-146435000D01*
X60490000Y-146435000D02*
X63565000Y-146435000D01*
X63565000Y-127565000D02*
X60490000Y-127565000D01*
X64580000Y-128985000D02*
X64580000Y-145015000D01*
X64580000Y-145015000D02*
X65080000Y-145015000D01*
X65080000Y-128985000D02*
X64580000Y-128985000D01*
X65080000Y-129005000D02*
X65080000Y-128985000D01*
X65080000Y-145015000D02*
X65080000Y-144995000D01*
X127600000Y-143630000D02*
X127600000Y-164150000D01*
X127600000Y-164150000D02*
X138020000Y-164150000D01*
X129000000Y-146270000D02*
X129000000Y-147540000D01*
X129000000Y-147540000D02*
X131540000Y-147540000D01*
X130270000Y-152620000D02*
X132175000Y-152620000D01*
X130270000Y-157700000D02*
X130905000Y-157700000D01*
X130270000Y-162780000D02*
X130905000Y-162780000D01*
X130905000Y-157700000D02*
X130905000Y-158716000D01*
X130905000Y-158716000D02*
X130524000Y-158335000D01*
X130905000Y-158716000D02*
X131286000Y-158335000D01*
X130905000Y-161764000D02*
X130524000Y-162145000D01*
X130905000Y-161764000D02*
X130905000Y-162780000D01*
X130905000Y-161764000D02*
X131286000Y-162145000D01*
X131540000Y-147030000D02*
X134080000Y-147030000D01*
X131540000Y-147540000D02*
X131540000Y-147030000D01*
X131540000Y-148050000D02*
X131540000Y-147540000D01*
X132175000Y-152620000D02*
X132175000Y-160240000D01*
X132175000Y-160240000D02*
X130905000Y-158970000D01*
X132302000Y-143630000D02*
X127600000Y-143630000D01*
X132302000Y-147030000D02*
X133318000Y-148050000D01*
X133445000Y-152620000D02*
X133445000Y-160240000D01*
X133445000Y-160240000D02*
X134715000Y-158970000D01*
X134080000Y-147030000D02*
X134080000Y-147540000D01*
X134080000Y-147540000D02*
X134080000Y-148050000D01*
X134080000Y-147540000D02*
X136620000Y-147540000D01*
X134080000Y-148050000D02*
X131540000Y-148050000D01*
X134715000Y-157700000D02*
X134715000Y-158716000D01*
X134715000Y-158716000D02*
X134334000Y-158335000D01*
X134715000Y-158716000D02*
X135096000Y-158335000D01*
X134715000Y-161764000D02*
X134334000Y-162145000D01*
X134715000Y-161764000D02*
X134715000Y-162780000D01*
X134715000Y-161764000D02*
X135096000Y-162145000D01*
X135350000Y-152620000D02*
X133445000Y-152620000D01*
X135350000Y-157700000D02*
X134715000Y-157700000D01*
X135350000Y-162780000D02*
X134715000Y-162780000D01*
X136620000Y-147540000D02*
X136620000Y-146270000D01*
X138020000Y-143630000D02*
X133318000Y-143630000D01*
X138020000Y-164150000D02*
X138020000Y-143630000D01*
D11*
X132305000Y-160240000D02*
G75*
G02*
X132045000Y-160240000I-130000J0D01*
G01*
X132045000Y-160240000D02*
G75*
G02*
X132305000Y-160240000I130000J0D01*
G01*
X133575000Y-160240000D02*
G75*
G02*
X133315000Y-160240000I-130000J0D01*
G01*
X133315000Y-160240000D02*
G75*
G02*
X133575000Y-160240000I130000J0D01*
G01*
D14*
X132810000Y-143630000D02*
X132610000Y-143290589D01*
X133010000Y-143290589D01*
X132810000Y-143630000D01*
G36*
X132810000Y-143630000D02*
G01*
X132610000Y-143290589D01*
X133010000Y-143290589D01*
X132810000Y-143630000D01*
G37*
X109540000Y-72377500D02*
X109540000Y-75062500D01*
X111460000Y-72377500D02*
X109540000Y-72377500D01*
X111460000Y-75062500D02*
X111460000Y-72377500D01*
X78540000Y-72252500D02*
X78540000Y-74937500D01*
X80460000Y-72252500D02*
X78540000Y-72252500D01*
X80460000Y-74937500D02*
X80460000Y-72252500D01*
D11*
X82600000Y-127270000D02*
X82600000Y-127480000D01*
X82600000Y-128730000D02*
X82600000Y-128530000D01*
X83950000Y-128730000D02*
X83950000Y-127270000D01*
X84350000Y-127270000D02*
X82600000Y-127270000D01*
X84350000Y-128730000D02*
X82600000Y-128730000D01*
D15*
X84760000Y-127350000D02*
G75*
G02*
X84700000Y-127350000I-30000J0D01*
G01*
X84700000Y-127350000D02*
G75*
G02*
X84760000Y-127350000I30000J0D01*
G01*
D16*
G36*
X84579779Y-127549861D02*
G01*
X84275005Y-127549861D01*
X84275005Y-127197462D01*
X84579779Y-127197462D01*
X84579779Y-127549861D01*
G37*
G36*
X84579779Y-128802310D02*
G01*
X84275005Y-128802310D01*
X84275005Y-128449885D01*
X84579779Y-128449885D01*
X84579779Y-128802310D01*
G37*
D14*
X114980000Y-143630000D02*
X114980000Y-164150000D01*
X114980000Y-164150000D02*
X125400000Y-164150000D01*
X116380000Y-146270000D02*
X116380000Y-147540000D01*
X116380000Y-147540000D02*
X118920000Y-147540000D01*
X117650000Y-152620000D02*
X119555000Y-152620000D01*
X117650000Y-157700000D02*
X118285000Y-157700000D01*
X117650000Y-162780000D02*
X118285000Y-162780000D01*
X118285000Y-157700000D02*
X118285000Y-158716000D01*
X118285000Y-158716000D02*
X117904000Y-158335000D01*
X118285000Y-158716000D02*
X118666000Y-158335000D01*
X118285000Y-161764000D02*
X117904000Y-162145000D01*
X118285000Y-161764000D02*
X118285000Y-162780000D01*
X118285000Y-161764000D02*
X118666000Y-162145000D01*
X118920000Y-147030000D02*
X121460000Y-147030000D01*
X118920000Y-147540000D02*
X118920000Y-147030000D01*
X118920000Y-148050000D02*
X118920000Y-147540000D01*
X119555000Y-152620000D02*
X119555000Y-160240000D01*
X119555000Y-160240000D02*
X118285000Y-158970000D01*
X119682000Y-143630000D02*
X114980000Y-143630000D01*
X119682000Y-147030000D02*
X120698000Y-148050000D01*
X120825000Y-152620000D02*
X120825000Y-160240000D01*
X120825000Y-160240000D02*
X122095000Y-158970000D01*
X121460000Y-147030000D02*
X121460000Y-147540000D01*
X121460000Y-147540000D02*
X121460000Y-148050000D01*
X121460000Y-147540000D02*
X124000000Y-147540000D01*
X121460000Y-148050000D02*
X118920000Y-148050000D01*
X122095000Y-157700000D02*
X122095000Y-158716000D01*
X122095000Y-158716000D02*
X121714000Y-158335000D01*
X122095000Y-158716000D02*
X122476000Y-158335000D01*
X122095000Y-161764000D02*
X121714000Y-162145000D01*
X122095000Y-161764000D02*
X122095000Y-162780000D01*
X122095000Y-161764000D02*
X122476000Y-162145000D01*
X122730000Y-152620000D02*
X120825000Y-152620000D01*
X122730000Y-157700000D02*
X122095000Y-157700000D01*
X122730000Y-162780000D02*
X122095000Y-162780000D01*
X124000000Y-147540000D02*
X124000000Y-146270000D01*
X125400000Y-143630000D02*
X120698000Y-143630000D01*
X125400000Y-164150000D02*
X125400000Y-143630000D01*
D11*
X119685000Y-160240000D02*
G75*
G02*
X119425000Y-160240000I-130000J0D01*
G01*
X119425000Y-160240000D02*
G75*
G02*
X119685000Y-160240000I130000J0D01*
G01*
X120955000Y-160240000D02*
G75*
G02*
X120695000Y-160240000I-130000J0D01*
G01*
X120695000Y-160240000D02*
G75*
G02*
X120955000Y-160240000I130000J0D01*
G01*
D14*
X120190000Y-143630000D02*
X119990000Y-143290589D01*
X120390000Y-143290589D01*
X120190000Y-143630000D01*
G36*
X120190000Y-143630000D02*
G01*
X119990000Y-143290589D01*
X120390000Y-143290589D01*
X120190000Y-143630000D01*
G37*
D11*
X90650000Y-140350000D02*
X92400000Y-140350000D01*
X90650000Y-141810000D02*
X92400000Y-141810000D01*
X91050000Y-140350000D02*
X91050000Y-141810000D01*
X92400000Y-140350000D02*
X92400000Y-140550000D01*
X92400000Y-141810000D02*
X92400000Y-141600000D01*
D15*
X90300000Y-141730000D02*
G75*
G02*
X90240000Y-141730000I-30000J0D01*
G01*
X90240000Y-141730000D02*
G75*
G02*
X90300000Y-141730000I30000J0D01*
G01*
D16*
G36*
X90724995Y-140630115D02*
G01*
X90420221Y-140630115D01*
X90420221Y-140277690D01*
X90724995Y-140277690D01*
X90724995Y-140630115D01*
G37*
G36*
X90724995Y-141882538D02*
G01*
X90420221Y-141882538D01*
X90420221Y-141530139D01*
X90724995Y-141530139D01*
X90724995Y-141882538D01*
G37*
D14*
X60319825Y-154896377D02*
X60319825Y-167766377D01*
X60319825Y-167766377D02*
X63394825Y-167766377D01*
X63394825Y-154896377D02*
X60319825Y-154896377D01*
X64409825Y-156316377D02*
X64409825Y-166346377D01*
X64409825Y-166346377D02*
X64909825Y-166346377D01*
X64909825Y-156316377D02*
X64409825Y-156316377D01*
X64909825Y-156336377D02*
X64909825Y-156316377D01*
X64909825Y-166346377D02*
X64909825Y-166326377D01*
X121646688Y-139716259D02*
X124331688Y-139716259D01*
X124331688Y-137796259D02*
X121646688Y-137796259D01*
X124331688Y-139716259D02*
X124331688Y-137796259D01*
D11*
X127947500Y-141191655D02*
X127947500Y-141401655D01*
X127947500Y-142651655D02*
X127947500Y-142451655D01*
X129297500Y-142651655D02*
X129297500Y-141191655D01*
X129697500Y-141191655D02*
X127947500Y-141191655D01*
X129697500Y-142651655D02*
X127947500Y-142651655D01*
D15*
X130107500Y-141271655D02*
G75*
G02*
X130047500Y-141271655I-30000J0D01*
G01*
X130047500Y-141271655D02*
G75*
G02*
X130107500Y-141271655I30000J0D01*
G01*
D16*
G36*
X129927279Y-141471516D02*
G01*
X129622505Y-141471516D01*
X129622505Y-141119117D01*
X129927279Y-141119117D01*
X129927279Y-141471516D01*
G37*
G36*
X129927279Y-142723965D02*
G01*
X129622505Y-142723965D01*
X129622505Y-142371540D01*
X129927279Y-142371540D01*
X129927279Y-142723965D01*
G37*
D14*
X109765000Y-69227064D02*
X109765000Y-68772936D01*
X111235000Y-69227064D02*
X111235000Y-68772936D01*
X66145000Y-171935000D02*
X66145000Y-175010000D01*
X66145000Y-175010000D02*
X100015000Y-175010000D01*
X67565000Y-170420000D02*
X67565000Y-170920000D01*
X67565000Y-170920000D02*
X98595000Y-170920000D01*
X67585000Y-170420000D02*
X67565000Y-170420000D01*
X98595000Y-170420000D02*
X98575000Y-170420000D01*
X98595000Y-170920000D02*
X98595000Y-170420000D01*
X100015000Y-175010000D02*
X100015000Y-171935000D01*
X160138761Y-138008821D02*
X159684633Y-138008821D01*
X160138761Y-139478821D02*
X159684633Y-139478821D01*
X75442500Y-139040000D02*
X78127500Y-139040000D01*
X78127500Y-137120000D02*
X75442500Y-137120000D01*
X78127500Y-139040000D02*
X78127500Y-137120000D01*
X99852064Y-130265000D02*
X99397936Y-130265000D01*
X99852064Y-131735000D02*
X99397936Y-131735000D01*
X90500000Y-139040000D02*
X93185000Y-139040000D01*
X93185000Y-137120000D02*
X90500000Y-137120000D01*
X93185000Y-139040000D02*
X93185000Y-137120000D01*
X137190000Y-80850000D02*
X137190000Y-85150000D01*
X137190000Y-80850000D02*
X143000000Y-80850000D01*
X137190000Y-85150000D02*
X143000000Y-85150000D01*
D11*
X121827500Y-141050000D02*
X123577500Y-141050000D01*
X121827500Y-142510000D02*
X123577500Y-142510000D01*
X122227500Y-141050000D02*
X122227500Y-142510000D01*
X123577500Y-141050000D02*
X123577500Y-141250000D01*
X123577500Y-142510000D02*
X123577500Y-142300000D01*
D15*
X121477500Y-142430000D02*
G75*
G02*
X121417500Y-142430000I-30000J0D01*
G01*
X121417500Y-142430000D02*
G75*
G02*
X121477500Y-142430000I30000J0D01*
G01*
D16*
G36*
X121902495Y-141330115D02*
G01*
X121597721Y-141330115D01*
X121597721Y-140977690D01*
X121902495Y-140977690D01*
X121902495Y-141330115D01*
G37*
G36*
X121902495Y-142582538D02*
G01*
X121597721Y-142582538D01*
X121597721Y-142230139D01*
X121902495Y-142230139D01*
X121902495Y-142582538D01*
G37*
D14*
X117904564Y-138045000D02*
X117450436Y-138045000D01*
X117904564Y-139515000D02*
X117450436Y-139515000D01*
X67765000Y-69227064D02*
X67765000Y-68772936D01*
X69235000Y-69227064D02*
X69235000Y-68772936D01*
D18*
X122000000Y-49075000D02*
X122000000Y-57000000D01*
X125210000Y-60910000D02*
X123760000Y-60900000D01*
X132490000Y-60950000D02*
X127070000Y-60920000D01*
X135810000Y-60960000D02*
X134190000Y-60960000D01*
X137500000Y-49075000D02*
X137500000Y-57000000D01*
X123690000Y-60920000D02*
G75*
G02*
X122004667Y-56894865I4310000J4170000D01*
G01*
X137495333Y-56934865D02*
G75*
G02*
X135810000Y-60960000I-5995333J144865D01*
G01*
D15*
X122030000Y-60950000D02*
G75*
G02*
X121970000Y-60950000I-30000J0D01*
G01*
X121970000Y-60950000D02*
G75*
G02*
X122030000Y-60950000I30000J0D01*
G01*
D14*
X157214197Y-143593821D02*
X157214197Y-164113821D01*
X157214197Y-164113821D02*
X167634197Y-164113821D01*
X158614197Y-146233821D02*
X158614197Y-147503821D01*
X158614197Y-147503821D02*
X161154197Y-147503821D01*
X159884197Y-152583821D02*
X161789197Y-152583821D01*
X159884197Y-157663821D02*
X160519197Y-157663821D01*
X159884197Y-162743821D02*
X160519197Y-162743821D01*
X160519197Y-157663821D02*
X160519197Y-158679821D01*
X160519197Y-158679821D02*
X160138197Y-158298821D01*
X160519197Y-158679821D02*
X160900197Y-158298821D01*
X160519197Y-161727821D02*
X160138197Y-162108821D01*
X160519197Y-161727821D02*
X160519197Y-162743821D01*
X160519197Y-161727821D02*
X160900197Y-162108821D01*
X161154197Y-146993821D02*
X163694197Y-146993821D01*
X161154197Y-147503821D02*
X161154197Y-146993821D01*
X161154197Y-148013821D02*
X161154197Y-147503821D01*
X161789197Y-152583821D02*
X161789197Y-160203821D01*
X161789197Y-160203821D02*
X160519197Y-158933821D01*
X161916197Y-143593821D02*
X157214197Y-143593821D01*
X161916197Y-146993821D02*
X162932197Y-148013821D01*
X163059197Y-152583821D02*
X163059197Y-160203821D01*
X163059197Y-160203821D02*
X164329197Y-158933821D01*
X163694197Y-146993821D02*
X163694197Y-147503821D01*
X163694197Y-147503821D02*
X163694197Y-148013821D01*
X163694197Y-147503821D02*
X166234197Y-147503821D01*
X163694197Y-148013821D02*
X161154197Y-148013821D01*
X164329197Y-157663821D02*
X164329197Y-158679821D01*
X164329197Y-158679821D02*
X163948197Y-158298821D01*
X164329197Y-158679821D02*
X164710197Y-158298821D01*
X164329197Y-161727821D02*
X163948197Y-162108821D01*
X164329197Y-161727821D02*
X164329197Y-162743821D01*
X164329197Y-161727821D02*
X164710197Y-162108821D01*
X164964197Y-152583821D02*
X163059197Y-152583821D01*
X164964197Y-157663821D02*
X164329197Y-157663821D01*
X164964197Y-162743821D02*
X164329197Y-162743821D01*
X166234197Y-147503821D02*
X166234197Y-146233821D01*
X167634197Y-143593821D02*
X162932197Y-143593821D01*
X167634197Y-164113821D02*
X167634197Y-143593821D01*
D11*
X161919197Y-160203821D02*
G75*
G02*
X161659197Y-160203821I-130000J0D01*
G01*
X161659197Y-160203821D02*
G75*
G02*
X161919197Y-160203821I130000J0D01*
G01*
X163189197Y-160203821D02*
G75*
G02*
X162929197Y-160203821I-130000J0D01*
G01*
X162929197Y-160203821D02*
G75*
G02*
X163189197Y-160203821I130000J0D01*
G01*
D14*
X162424197Y-143593821D02*
X162224197Y-143254410D01*
X162624197Y-143254410D01*
X162424197Y-143593821D01*
G36*
X162424197Y-143593821D02*
G01*
X162224197Y-143254410D01*
X162624197Y-143254410D01*
X162424197Y-143593821D01*
G37*
X68370000Y-117000000D02*
G75*
G02*
X60130000Y-117000000I-4120000J0D01*
G01*
X60130000Y-117000000D02*
G75*
G02*
X68370000Y-117000000I4120000J0D01*
G01*
X68980000Y-142930000D02*
X68980000Y-163450000D01*
X68980000Y-163450000D02*
X79400000Y-163450000D01*
X70380000Y-145570000D02*
X70380000Y-146840000D01*
X70380000Y-146840000D02*
X72920000Y-146840000D01*
X71650000Y-151920000D02*
X73555000Y-151920000D01*
X71650000Y-157000000D02*
X72285000Y-157000000D01*
X71650000Y-162080000D02*
X72285000Y-162080000D01*
X72285000Y-157000000D02*
X72285000Y-158016000D01*
X72285000Y-158016000D02*
X71904000Y-157635000D01*
X72285000Y-158016000D02*
X72666000Y-157635000D01*
X72285000Y-161064000D02*
X71904000Y-161445000D01*
X72285000Y-161064000D02*
X72285000Y-162080000D01*
X72285000Y-161064000D02*
X72666000Y-161445000D01*
X72920000Y-146330000D02*
X75460000Y-146330000D01*
X72920000Y-146840000D02*
X72920000Y-146330000D01*
X72920000Y-147350000D02*
X72920000Y-146840000D01*
X73555000Y-151920000D02*
X73555000Y-159540000D01*
X73555000Y-159540000D02*
X72285000Y-158270000D01*
X73682000Y-142930000D02*
X68980000Y-142930000D01*
X73682000Y-146330000D02*
X74698000Y-147350000D01*
X74825000Y-151920000D02*
X74825000Y-159540000D01*
X74825000Y-159540000D02*
X76095000Y-158270000D01*
X75460000Y-146330000D02*
X75460000Y-146840000D01*
X75460000Y-146840000D02*
X75460000Y-147350000D01*
X75460000Y-146840000D02*
X78000000Y-146840000D01*
X75460000Y-147350000D02*
X72920000Y-147350000D01*
X76095000Y-157000000D02*
X76095000Y-158016000D01*
X76095000Y-158016000D02*
X75714000Y-157635000D01*
X76095000Y-158016000D02*
X76476000Y-157635000D01*
X76095000Y-161064000D02*
X75714000Y-161445000D01*
X76095000Y-161064000D02*
X76095000Y-162080000D01*
X76095000Y-161064000D02*
X76476000Y-161445000D01*
X76730000Y-151920000D02*
X74825000Y-151920000D01*
X76730000Y-157000000D02*
X76095000Y-157000000D01*
X76730000Y-162080000D02*
X76095000Y-162080000D01*
X78000000Y-146840000D02*
X78000000Y-145570000D01*
X79400000Y-142930000D02*
X74698000Y-142930000D01*
X79400000Y-163450000D02*
X79400000Y-142930000D01*
D11*
X73685000Y-159540000D02*
G75*
G02*
X73425000Y-159540000I-130000J0D01*
G01*
X73425000Y-159540000D02*
G75*
G02*
X73685000Y-159540000I130000J0D01*
G01*
X74955000Y-159540000D02*
G75*
G02*
X74695000Y-159540000I-130000J0D01*
G01*
X74695000Y-159540000D02*
G75*
G02*
X74955000Y-159540000I130000J0D01*
G01*
D14*
X74190000Y-142930000D02*
X73990000Y-142590589D01*
X74390000Y-142590589D01*
X74190000Y-142930000D01*
G36*
X74190000Y-142930000D02*
G01*
X73990000Y-142590589D01*
X74390000Y-142590589D01*
X74190000Y-142930000D01*
G37*
X109000000Y-139782500D02*
X111685000Y-139782500D01*
X111685000Y-137862500D02*
X109000000Y-137862500D01*
X111685000Y-139782500D02*
X111685000Y-137862500D01*
X140430395Y-143630328D02*
X140430395Y-164150328D01*
X140430395Y-164150328D02*
X150850395Y-164150328D01*
X141830395Y-146270328D02*
X141830395Y-147540328D01*
X141830395Y-147540328D02*
X144370395Y-147540328D01*
X143100395Y-152620328D02*
X145005395Y-152620328D01*
X143100395Y-157700328D02*
X143735395Y-157700328D01*
X143100395Y-162780328D02*
X143735395Y-162780328D01*
X143735395Y-157700328D02*
X143735395Y-158716328D01*
X143735395Y-158716328D02*
X143354395Y-158335328D01*
X143735395Y-158716328D02*
X144116395Y-158335328D01*
X143735395Y-161764328D02*
X143354395Y-162145328D01*
X143735395Y-161764328D02*
X143735395Y-162780328D01*
X143735395Y-161764328D02*
X144116395Y-162145328D01*
X144370395Y-147030328D02*
X146910395Y-147030328D01*
X144370395Y-147540328D02*
X144370395Y-147030328D01*
X144370395Y-148050328D02*
X144370395Y-147540328D01*
X145005395Y-152620328D02*
X145005395Y-160240328D01*
X145005395Y-160240328D02*
X143735395Y-158970328D01*
X145132395Y-143630328D02*
X140430395Y-143630328D01*
X145132395Y-147030328D02*
X146148395Y-148050328D01*
X146275395Y-152620328D02*
X146275395Y-160240328D01*
X146275395Y-160240328D02*
X147545395Y-158970328D01*
X146910395Y-147030328D02*
X146910395Y-147540328D01*
X146910395Y-147540328D02*
X146910395Y-148050328D01*
X146910395Y-147540328D02*
X149450395Y-147540328D01*
X146910395Y-148050328D02*
X144370395Y-148050328D01*
X147545395Y-157700328D02*
X147545395Y-158716328D01*
X147545395Y-158716328D02*
X147164395Y-158335328D01*
X147545395Y-158716328D02*
X147926395Y-158335328D01*
X147545395Y-161764328D02*
X147164395Y-162145328D01*
X147545395Y-161764328D02*
X147545395Y-162780328D01*
X147545395Y-161764328D02*
X147926395Y-162145328D01*
X148180395Y-152620328D02*
X146275395Y-152620328D01*
X148180395Y-157700328D02*
X147545395Y-157700328D01*
X148180395Y-162780328D02*
X147545395Y-162780328D01*
X149450395Y-147540328D02*
X149450395Y-146270328D01*
X150850395Y-143630328D02*
X146148395Y-143630328D01*
X150850395Y-164150328D02*
X150850395Y-143630328D01*
D11*
X145135395Y-160240328D02*
G75*
G02*
X144875395Y-160240328I-130000J0D01*
G01*
X144875395Y-160240328D02*
G75*
G02*
X145135395Y-160240328I130000J0D01*
G01*
X146405395Y-160240328D02*
G75*
G02*
X146145395Y-160240328I-130000J0D01*
G01*
X146145395Y-160240328D02*
G75*
G02*
X146405395Y-160240328I130000J0D01*
G01*
D14*
X145640395Y-143630328D02*
X145440395Y-143290917D01*
X145840395Y-143290917D01*
X145640395Y-143630328D01*
G36*
X145640395Y-143630328D02*
G01*
X145440395Y-143290917D01*
X145840395Y-143290917D01*
X145640395Y-143630328D01*
G37*
X163911697Y-139703821D02*
X166596697Y-139703821D01*
X166596697Y-137783821D02*
X163911697Y-137783821D01*
X166596697Y-139703821D02*
X166596697Y-137783821D01*
X99765000Y-69227064D02*
X99765000Y-68772936D01*
X101235000Y-69227064D02*
X101235000Y-68772936D01*
D11*
X146600395Y-141050328D02*
X148350395Y-141050328D01*
X146600395Y-142510328D02*
X148350395Y-142510328D01*
X147000395Y-141050328D02*
X147000395Y-142510328D01*
X148350395Y-141050328D02*
X148350395Y-141250328D01*
X148350395Y-142510328D02*
X148350395Y-142300328D01*
D15*
X146250395Y-142430328D02*
G75*
G02*
X146190395Y-142430328I-30000J0D01*
G01*
X146190395Y-142430328D02*
G75*
G02*
X146250395Y-142430328I30000J0D01*
G01*
D16*
G36*
X146675390Y-141330443D02*
G01*
X146370616Y-141330443D01*
X146370616Y-140978018D01*
X146675390Y-140978018D01*
X146675390Y-141330443D01*
G37*
G36*
X146675390Y-142582866D02*
G01*
X146370616Y-142582866D01*
X146370616Y-142230467D01*
X146675390Y-142230467D01*
X146675390Y-142582866D01*
G37*
D14*
X89227064Y-164345000D02*
X88772936Y-164345000D01*
X89227064Y-165815000D02*
X88772936Y-165815000D01*
X79815000Y-129040000D02*
X79815000Y-130960000D01*
X79815000Y-130960000D02*
X82500000Y-130960000D01*
X82500000Y-129040000D02*
X79815000Y-129040000D01*
D17*
X146500000Y-93000000D02*
G75*
G02*
X136500000Y-93000000I-5000000J0D01*
G01*
X136500000Y-93000000D02*
G75*
G02*
X146500000Y-93000000I5000000J0D01*
G01*
D14*
X64288748Y-109765000D02*
X64811252Y-109765000D01*
X64288748Y-111235000D02*
X64811252Y-111235000D01*
D11*
X119600000Y-90270000D02*
X119600000Y-90480000D01*
X119600000Y-91730000D02*
X119600000Y-91530000D01*
X120950000Y-91730000D02*
X120950000Y-90270000D01*
X121350000Y-90270000D02*
X119600000Y-90270000D01*
X121350000Y-91730000D02*
X119600000Y-91730000D01*
D15*
X121760000Y-90350000D02*
G75*
G02*
X121700000Y-90350000I-30000J0D01*
G01*
X121700000Y-90350000D02*
G75*
G02*
X121760000Y-90350000I30000J0D01*
G01*
D16*
G36*
X121579779Y-90549861D02*
G01*
X121275005Y-90549861D01*
X121275005Y-90197462D01*
X121579779Y-90197462D01*
X121579779Y-90549861D01*
G37*
G36*
X121579779Y-91802310D02*
G01*
X121275005Y-91802310D01*
X121275005Y-91449885D01*
X121579779Y-91449885D01*
X121579779Y-91802310D01*
G37*
D14*
X127811252Y-86265000D02*
X127288748Y-86265000D01*
X127811252Y-87735000D02*
X127288748Y-87735000D01*
D11*
X108150000Y-141092500D02*
X109900000Y-141092500D01*
X108150000Y-142552500D02*
X109900000Y-142552500D01*
X108550000Y-141092500D02*
X108550000Y-142552500D01*
X109900000Y-141092500D02*
X109900000Y-141292500D01*
X109900000Y-142552500D02*
X109900000Y-142342500D01*
D15*
X107800000Y-142472500D02*
G75*
G02*
X107740000Y-142472500I-30000J0D01*
G01*
X107740000Y-142472500D02*
G75*
G02*
X107800000Y-142472500I30000J0D01*
G01*
D16*
G36*
X108224995Y-141372615D02*
G01*
X107920221Y-141372615D01*
X107920221Y-141020190D01*
X108224995Y-141020190D01*
X108224995Y-141372615D01*
G37*
G36*
X108224995Y-142625038D02*
G01*
X107920221Y-142625038D01*
X107920221Y-142272639D01*
X108224995Y-142272639D01*
X108224995Y-142625038D01*
G37*
D14*
X72360436Y-130265000D02*
X72814564Y-130265000D01*
X72360436Y-131735000D02*
X72814564Y-131735000D01*
X89540000Y-72377500D02*
X89540000Y-75062500D01*
X91460000Y-72377500D02*
X89540000Y-72377500D01*
X91460000Y-75062500D02*
X91460000Y-72377500D01*
D11*
X164061697Y-141013821D02*
X165811697Y-141013821D01*
X164061697Y-142473821D02*
X165811697Y-142473821D01*
X164461697Y-141013821D02*
X164461697Y-142473821D01*
X165811697Y-141013821D02*
X165811697Y-141213821D01*
X165811697Y-142473821D02*
X165811697Y-142263821D01*
D15*
X163711697Y-142393821D02*
G75*
G02*
X163651697Y-142393821I-30000J0D01*
G01*
X163651697Y-142393821D02*
G75*
G02*
X163711697Y-142393821I30000J0D01*
G01*
D16*
G36*
X164136692Y-141293936D02*
G01*
X163831918Y-141293936D01*
X163831918Y-140941511D01*
X164136692Y-140941511D01*
X164136692Y-141293936D01*
G37*
G36*
X164136692Y-142546359D02*
G01*
X163831918Y-142546359D01*
X163831918Y-142193960D01*
X164136692Y-142193960D01*
X164136692Y-142546359D01*
G37*
D17*
X70300000Y-94700000D02*
X97900000Y-94700000D01*
X70300000Y-112450000D02*
X70300000Y-94700000D01*
X72750000Y-112450000D02*
X70300000Y-112450000D01*
X72750000Y-126700000D02*
X72750000Y-112450000D01*
X92600000Y-107450000D02*
X92600000Y-126700000D01*
X92600000Y-126700000D02*
X72750000Y-126700000D01*
X97900000Y-94700000D02*
X97900000Y-107450000D01*
X97900000Y-107450000D02*
X92600000Y-107450000D01*
D14*
X131904564Y-138045000D02*
X131450436Y-138045000D01*
X131904564Y-139515000D02*
X131450436Y-139515000D01*
X108730000Y-76940000D02*
X108730000Y-93140000D01*
X108730000Y-93140000D02*
X115670000Y-93140000D01*
X110200000Y-86640000D02*
X110200000Y-83440000D01*
X112200000Y-85790000D02*
X112200000Y-84290000D01*
X114200000Y-83440000D02*
X114200000Y-86640000D01*
X115670000Y-76940000D02*
X108730000Y-76940000D01*
X115670000Y-93140000D02*
X115670000Y-76940000D01*
%LPC*%
D19*
X136677500Y-138780000D03*
X134802500Y-138780000D03*
D20*
X75210000Y-141080000D03*
X77550000Y-141080000D03*
D21*
X114500000Y-56500000D03*
D22*
X109420000Y-56500000D03*
X104340000Y-56500000D03*
X99260000Y-56500000D03*
X94180000Y-56500000D03*
X89100000Y-56500000D03*
X84020000Y-56500000D03*
X78940000Y-56500000D03*
X73860000Y-56500000D03*
X68780000Y-56500000D03*
D23*
X103330000Y-131000000D03*
X105205000Y-131000000D03*
D24*
X141000000Y-171040000D03*
X165000000Y-171040000D03*
D25*
X144000000Y-173000000D03*
D26*
X147000000Y-173000000D03*
X150000000Y-173000000D03*
X153000000Y-173000000D03*
X156000000Y-173000000D03*
X159000000Y-173000000D03*
X162000000Y-173000000D03*
D27*
X143362895Y-138780328D03*
X141537895Y-138780328D03*
X73292500Y-139080000D03*
X71467500Y-139080000D03*
D28*
X60000000Y-58000000D03*
D29*
X100500000Y-90000000D03*
X103900000Y-90000000D03*
X100500000Y-80080000D03*
X103900000Y-80080000D03*
D27*
X73325000Y-134000000D03*
X71500000Y-134000000D03*
D30*
X100562500Y-73062500D03*
X100562500Y-74937500D03*
D31*
X119500000Y-70000000D03*
D32*
X122040000Y-70000000D03*
X119500000Y-72540000D03*
X122040000Y-72540000D03*
X119500000Y-75080000D03*
X122040000Y-75080000D03*
X119500000Y-77620000D03*
X122040000Y-77620000D03*
X119500000Y-80160000D03*
X122040000Y-80160000D03*
X119500000Y-82700000D03*
X122040000Y-82700000D03*
D20*
X134507500Y-141780000D03*
X136847500Y-141780000D03*
D33*
X76625000Y-132137500D03*
X76625000Y-134037500D03*
X78500000Y-133087500D03*
D24*
X102000000Y-171040000D03*
X126000000Y-171040000D03*
D25*
X105000000Y-173000000D03*
D26*
X108000000Y-173000000D03*
X111000000Y-173000000D03*
X114000000Y-173000000D03*
X117000000Y-173000000D03*
X120000000Y-173000000D03*
X123000000Y-173000000D03*
D19*
X149387895Y-138780328D03*
X147512895Y-138780328D03*
D34*
X153911697Y-144743821D03*
X153911697Y-147083821D03*
D35*
X128220000Y-74000000D03*
D36*
X130500000Y-67160000D03*
D35*
X132780000Y-74000000D03*
D37*
X79500000Y-69700000D03*
X79500000Y-67875000D03*
D38*
X84737500Y-130000000D03*
X86562500Y-130000000D03*
D30*
X68500000Y-73125000D03*
X68500000Y-75000000D03*
D27*
X105912500Y-138822500D03*
X104087500Y-138822500D03*
X88497328Y-137975338D03*
X86672328Y-137975338D03*
D29*
X139080000Y-75960000D03*
X142480000Y-75960000D03*
X139080000Y-66040000D03*
X142480000Y-66040000D03*
D37*
X90500000Y-70000000D03*
X90500000Y-68175000D03*
D20*
X105500000Y-129000000D03*
X103160000Y-129000000D03*
D39*
X103189863Y-152661051D03*
X103189863Y-157741051D03*
X103189863Y-162821051D03*
X110809863Y-152661051D03*
X110809863Y-157741051D03*
X110809863Y-162821051D03*
D40*
X103189863Y-145041051D03*
D39*
X110809863Y-145041051D03*
D41*
X104500000Y-116500000D03*
D42*
X108300000Y-101300000D03*
X118500000Y-101300000D03*
D41*
X122300000Y-114000000D03*
D39*
X85120365Y-151919999D03*
X85120365Y-156999999D03*
X85120365Y-162079999D03*
X92740365Y-151919999D03*
X92740365Y-156999999D03*
X92740365Y-162079999D03*
D40*
X85120365Y-144299999D03*
D39*
X92740365Y-144299999D03*
D43*
X128500000Y-78175000D03*
X128500000Y-80000000D03*
D29*
X90500000Y-90000000D03*
X93900000Y-90000000D03*
X90500000Y-80080000D03*
X93900000Y-80080000D03*
X83500000Y-80000000D03*
X80100000Y-80000000D03*
X83500000Y-89920000D03*
X80100000Y-89920000D03*
X72500000Y-80000000D03*
X69100000Y-80000000D03*
X72500000Y-89920000D03*
X69100000Y-89920000D03*
D27*
X90000000Y-167080000D03*
X88175000Y-167080000D03*
D24*
X64460000Y-128000000D03*
X64460000Y-146000000D03*
D44*
X62500000Y-131000000D03*
D45*
X62500000Y-134000000D03*
X62500000Y-137000000D03*
X62500000Y-140000000D03*
X62500000Y-143000000D03*
D39*
X129000000Y-152620000D03*
X129000000Y-157700000D03*
X129000000Y-162780000D03*
X136620000Y-152620000D03*
X136620000Y-157700000D03*
X136620000Y-162780000D03*
D40*
X129000000Y-145000000D03*
D39*
X136620000Y-145000000D03*
D30*
X110500000Y-73125000D03*
X110500000Y-75000000D03*
X79500000Y-73000000D03*
X79500000Y-74875000D03*
D20*
X84670000Y-128000000D03*
X82330000Y-128000000D03*
D39*
X116380000Y-152620000D03*
X116380000Y-157700000D03*
X116380000Y-162780000D03*
X124000000Y-152620000D03*
X124000000Y-157700000D03*
X124000000Y-162780000D03*
D40*
X116380000Y-145000000D03*
D39*
X124000000Y-145000000D03*
D20*
X90330000Y-141080000D03*
X92670000Y-141080000D03*
D24*
X64289825Y-155331377D03*
X64289825Y-167331377D03*
D44*
X62329825Y-158331377D03*
D45*
X62329825Y-161331377D03*
X62329825Y-164331377D03*
D19*
X123584188Y-138756259D03*
X121709188Y-138756259D03*
D20*
X130017500Y-141921655D03*
X127677500Y-141921655D03*
D37*
X110500000Y-69912500D03*
X110500000Y-68087500D03*
D24*
X66580000Y-171040000D03*
X99580000Y-171040000D03*
D25*
X69580000Y-173000000D03*
D26*
X72580000Y-173000000D03*
X75580000Y-173000000D03*
X78580000Y-173000000D03*
X81580000Y-173000000D03*
X84580000Y-173000000D03*
X87580000Y-173000000D03*
X90580000Y-173000000D03*
X93580000Y-173000000D03*
X96580000Y-173000000D03*
D27*
X160824197Y-138743821D03*
X158999197Y-138743821D03*
D19*
X77380000Y-138080000D03*
X75505000Y-138080000D03*
D27*
X100537500Y-131000000D03*
X98712500Y-131000000D03*
D19*
X92437500Y-138080000D03*
X90562500Y-138080000D03*
D46*
X138700000Y-83000000D03*
X143000000Y-83000000D03*
D20*
X121507500Y-141780000D03*
X123847500Y-141780000D03*
D27*
X118590000Y-138780000D03*
X116765000Y-138780000D03*
D37*
X68500000Y-69912500D03*
X68500000Y-68087500D03*
D47*
X126150000Y-59000000D03*
X133350000Y-59000000D03*
D48*
X136500000Y-53000000D03*
X123000000Y-53000000D03*
D39*
X158614197Y-152583821D03*
X158614197Y-157663821D03*
X158614197Y-162743821D03*
X166234197Y-152583821D03*
X166234197Y-157663821D03*
X166234197Y-162743821D03*
D40*
X158614197Y-144963821D03*
D39*
X166234197Y-144963821D03*
D49*
X66000000Y-117000000D03*
X62500000Y-117000000D03*
D39*
X70380000Y-151920000D03*
X70380000Y-157000000D03*
X70380000Y-162080000D03*
X78000000Y-151920000D03*
X78000000Y-157000000D03*
X78000000Y-162080000D03*
D40*
X70380000Y-144300000D03*
D39*
X78000000Y-144300000D03*
D19*
X110937500Y-138822500D03*
X109062500Y-138822500D03*
D39*
X141830395Y-152620328D03*
X141830395Y-157700328D03*
X141830395Y-162780328D03*
X149450395Y-152620328D03*
X149450395Y-157700328D03*
X149450395Y-162780328D03*
D40*
X141830395Y-145000328D03*
D39*
X149450395Y-145000328D03*
D19*
X165849197Y-138743821D03*
X163974197Y-138743821D03*
D37*
X100500000Y-69912500D03*
X100500000Y-68087500D03*
D20*
X146280395Y-141780328D03*
X148620395Y-141780328D03*
D27*
X89912500Y-165080000D03*
X88087500Y-165080000D03*
D23*
X80562500Y-130000000D03*
X82437500Y-130000000D03*
D50*
X139000000Y-93000000D03*
D51*
X144000000Y-93000000D03*
D52*
X63600000Y-110500000D03*
X65500000Y-110500000D03*
D20*
X121670000Y-91000000D03*
X119330000Y-91000000D03*
D28*
X60000000Y-173000000D03*
D53*
X128500000Y-87000000D03*
X126600000Y-87000000D03*
D20*
X107830000Y-141822500D03*
X110170000Y-141822500D03*
D38*
X71675000Y-131000000D03*
X73500000Y-131000000D03*
D30*
X90500000Y-73125000D03*
X90500000Y-75000000D03*
D20*
X163741697Y-141743821D03*
X166081697Y-141743821D03*
D28*
X180000000Y-173000000D03*
D41*
X92500000Y-105000000D03*
D42*
X88700000Y-120200000D03*
X78500000Y-120200000D03*
D41*
X74700000Y-107500000D03*
D27*
X132590000Y-138780000D03*
X130765000Y-138780000D03*
D28*
X180000000Y-58000000D03*
D29*
X110500000Y-90000000D03*
X113900000Y-90000000D03*
X110500000Y-80080000D03*
X113900000Y-80080000D03*
%LPD*%
M02*
