G04 #@! TF.GenerationSoftware,KiCad,Pcbnew,10.0.6*
G04 #@! TF.CreationDate,2026-10-01T15:13:54-05:00*
G04 #@! TF.ProjectId,CREWLINE-PRIM-PCB-001,43524557-4c49-44e4-952d-5052494d2d50,V3.1-H1*
G04 #@! TF.SameCoordinates,Original*
G04 #@! TF.FileFunction,Soldermask,Bot*
G04 #@! TF.FilePolarity,Negative*
%FSLAX46Y46*%
G04 Gerber Fmt 4.6, Leading zero omitted, Abs format (unit mm)*
G04 Created by KiCad (PCBNEW 10.0.6) date 2026-10-01 15:13:54*
%MOMM*%
%LPD*%
G01*
G04 APERTURE LIST*
G04 Aperture macros list*
%AMRoundRect*
0 Rectangle with rounded corners*
0 $1 Rounding radius*
0 $2 $3 $4 $5 $6 $7 $8 $9 X,Y pos of 4 corners*
0 Add a 4 corners polygon primitive as box body*
4,1,4,$2,$3,$4,$5,$6,$7,$8,$9,$2,$3,0*
0 Add four circle primitives for the rounded corners*
1,1,$1+$1,$2,$3*
1,1,$1+$1,$4,$5*
1,1,$1+$1,$6,$7*
1,1,$1+$1,$8,$9*
0 Add four rect primitives between the rounded corners*
20,1,$1+$1,$2,$3,$4,$5,0*
20,1,$1+$1,$4,$5,$6,$7,0*
20,1,$1+$1,$6,$7,$8,$9,0*
20,1,$1+$1,$8,$9,$2,$3,0*%
G04 Aperture macros list end*
%ADD10RoundRect,0.250000X1.050000X1.050000X-1.050000X1.050000X-1.050000X-1.050000X1.050000X-1.050000X0*%
%ADD11C,2.600000*%
%ADD12C,1.270000*%
%ADD13RoundRect,0.250001X-0.499999X-0.759999X0.499999X-0.759999X0.499999X0.759999X-0.499999X0.759999X0*%
%ADD14O,1.500000X2.020000*%
%ADD15C,4.300000*%
%ADD16C,2.780000*%
%ADD17R,1.700000X1.700000*%
%ADD18C,1.700000*%
%ADD19C,2.000000*%
%ADD20RoundRect,0.250000X-0.750000X-0.750000X0.750000X-0.750000X0.750000X0.750000X-0.750000X0.750000X0*%
%ADD21C,3.320000*%
%ADD22C,1.854000*%
%ADD23RoundRect,0.250001X-0.759999X0.499999X-0.759999X-0.499999X0.759999X-0.499999X0.759999X0.499999X0*%
%ADD24O,2.020000X1.500000*%
%ADD25C,3.800000*%
%ADD26O,1.200000X2.200000*%
%ADD27C,1.600000*%
%ADD28RoundRect,0.102000X-0.800000X-0.800000X0.800000X-0.800000X0.800000X0.800000X-0.800000X0.800000X0*%
%ADD29C,1.804000*%
G04 APERTURE END LIST*
D10*
X114500000Y-56500000D03*
D11*
X109420000Y-56500000D03*
X104340000Y-56500000D03*
X99260000Y-56500000D03*
X94180000Y-56500000D03*
X89100000Y-56500000D03*
X84020000Y-56500000D03*
X78940000Y-56500000D03*
X73860000Y-56500000D03*
X68780000Y-56500000D03*
D12*
X141000000Y-171040000D03*
X165000000Y-171040000D03*
D13*
X144000000Y-173000000D03*
D14*
X147000000Y-173000000D03*
X150000000Y-173000000D03*
X153000000Y-173000000D03*
X156000000Y-173000000D03*
X159000000Y-173000000D03*
X162000000Y-173000000D03*
D15*
X60000000Y-58000000D03*
D16*
X100500000Y-90000000D03*
X103900000Y-90000000D03*
X100500000Y-80080000D03*
X103900000Y-80080000D03*
D17*
X119500000Y-70000000D03*
D18*
X122040000Y-70000000D03*
X119500000Y-72540000D03*
X122040000Y-72540000D03*
X119500000Y-75080000D03*
X122040000Y-75080000D03*
X119500000Y-77620000D03*
X122040000Y-77620000D03*
X119500000Y-80160000D03*
X122040000Y-80160000D03*
X119500000Y-82700000D03*
X122040000Y-82700000D03*
D12*
X102000000Y-171040000D03*
X126000000Y-171040000D03*
D13*
X105000000Y-173000000D03*
D14*
X108000000Y-173000000D03*
X111000000Y-173000000D03*
X114000000Y-173000000D03*
X117000000Y-173000000D03*
X120000000Y-173000000D03*
X123000000Y-173000000D03*
D16*
X139080000Y-75960000D03*
X142480000Y-75960000D03*
X139080000Y-66040000D03*
X142480000Y-66040000D03*
D19*
X103189863Y-152661051D03*
X103189863Y-157741051D03*
X103189863Y-162821051D03*
X110809863Y-152661051D03*
X110809863Y-157741051D03*
X110809863Y-162821051D03*
D20*
X103189863Y-145041051D03*
D19*
X110809863Y-145041051D03*
D21*
X104500000Y-116500000D03*
D22*
X108300000Y-101300000D03*
X118500000Y-101300000D03*
D21*
X122300000Y-114000000D03*
D19*
X85120365Y-151919999D03*
X85120365Y-156999999D03*
X85120365Y-162079999D03*
X92740365Y-151919999D03*
X92740365Y-156999999D03*
X92740365Y-162079999D03*
D20*
X85120365Y-144299999D03*
D19*
X92740365Y-144299999D03*
D16*
X90500000Y-90000000D03*
X93900000Y-90000000D03*
X90500000Y-80080000D03*
X93900000Y-80080000D03*
X83500000Y-80000000D03*
X80100000Y-80000000D03*
X83500000Y-89920000D03*
X80100000Y-89920000D03*
X72500000Y-80000000D03*
X69100000Y-80000000D03*
X72500000Y-89920000D03*
X69100000Y-89920000D03*
D12*
X64460000Y-128000000D03*
X64460000Y-146000000D03*
D23*
X62500000Y-131000000D03*
D24*
X62500000Y-134000000D03*
X62500000Y-137000000D03*
X62500000Y-140000000D03*
X62500000Y-143000000D03*
D19*
X129000000Y-152620000D03*
X129000000Y-157700000D03*
X129000000Y-162780000D03*
X136620000Y-152620000D03*
X136620000Y-157700000D03*
X136620000Y-162780000D03*
D20*
X129000000Y-145000000D03*
D19*
X136620000Y-145000000D03*
X116380000Y-152620000D03*
X116380000Y-157700000D03*
X116380000Y-162780000D03*
X124000000Y-152620000D03*
X124000000Y-157700000D03*
X124000000Y-162780000D03*
D20*
X116380000Y-145000000D03*
D19*
X124000000Y-145000000D03*
D12*
X64289825Y-155331377D03*
X64289825Y-167331377D03*
D23*
X62329825Y-158331377D03*
D24*
X62329825Y-161331377D03*
X62329825Y-164331377D03*
D12*
X66580000Y-171040000D03*
X99580000Y-171040000D03*
D13*
X69580000Y-173000000D03*
D14*
X72580000Y-173000000D03*
X75580000Y-173000000D03*
X78580000Y-173000000D03*
X81580000Y-173000000D03*
X84580000Y-173000000D03*
X87580000Y-173000000D03*
X90580000Y-173000000D03*
X93580000Y-173000000D03*
X96580000Y-173000000D03*
D25*
X126150000Y-59000000D03*
X133350000Y-59000000D03*
D26*
X136500000Y-53000000D03*
X123000000Y-53000000D03*
D19*
X158614197Y-152583821D03*
X158614197Y-157663821D03*
X158614197Y-162743821D03*
X166234197Y-152583821D03*
X166234197Y-157663821D03*
X166234197Y-162743821D03*
D20*
X158614197Y-144963821D03*
D19*
X166234197Y-144963821D03*
D27*
X66000000Y-117000000D03*
X62500000Y-117000000D03*
D19*
X70380000Y-151920000D03*
X70380000Y-157000000D03*
X70380000Y-162080000D03*
X78000000Y-151920000D03*
X78000000Y-157000000D03*
X78000000Y-162080000D03*
D20*
X70380000Y-144300000D03*
D19*
X78000000Y-144300000D03*
X141830395Y-152620328D03*
X141830395Y-157700328D03*
X141830395Y-162780328D03*
X149450395Y-152620328D03*
X149450395Y-157700328D03*
X149450395Y-162780328D03*
D20*
X141830395Y-145000328D03*
D19*
X149450395Y-145000328D03*
D28*
X139000000Y-93000000D03*
D29*
X144000000Y-93000000D03*
D15*
X60000000Y-173000000D03*
X180000000Y-173000000D03*
D21*
X92500000Y-105000000D03*
D22*
X88700000Y-120200000D03*
X78500000Y-120200000D03*
D21*
X74700000Y-107500000D03*
D15*
X180000000Y-58000000D03*
D16*
X110500000Y-90000000D03*
X113900000Y-90000000D03*
X110500000Y-80080000D03*
X113900000Y-80080000D03*
M02*
