G04 #@! TF.GenerationSoftware,KiCad,Pcbnew,10.0.6*
G04 #@! TF.CreationDate,2026-10-01T15:13:54-05:00*
G04 #@! TF.ProjectId,CREWLINE-PRIM-PCB-001,43524557-4c49-44e4-952d-5052494d2d50,V3.1-H1*
G04 #@! TF.SameCoordinates,Original*
G04 #@! TF.FileFunction,Paste,Top*
G04 #@! TF.FilePolarity,Positive*
%FSLAX46Y46*%
G04 Gerber Fmt 4.6, Leading zero omitted, Abs format (unit mm)*
G04 Created by KiCad (PCBNEW 10.0.6) date 2026-10-01 15:13:54*
%MOMM*%
%LPD*%
G01*
G04 APERTURE LIST*
G04 Aperture macros list*
%AMRoundRect*
0 Rectangle with rounded corners*
0 $1 Rounding radius*
0 $2 $3 $4 $5 $6 $7 $8 $9 X,Y pos of 4 corners*
0 Add a 4 corners polygon primitive as box body*
4,1,4,$2,$3,$4,$5,$6,$7,$8,$9,$2,$3,0*
0 Add four circle primitives for the rounded corners*
1,1,$1+$1,$2,$3*
1,1,$1+$1,$4,$5*
1,1,$1+$1,$6,$7*
1,1,$1+$1,$8,$9*
0 Add four rect primitives between the rounded corners*
20,1,$1+$1,$2,$3,$4,$5,0*
20,1,$1+$1,$4,$5,$6,$7,0*
20,1,$1+$1,$6,$7,$8,$9,0*
20,1,$1+$1,$8,$9,$2,$3,0*%
G04 Aperture macros list end*
%ADD10RoundRect,0.243750X0.243750X0.456250X-0.243750X0.456250X-0.243750X-0.456250X0.243750X-0.456250X0*%
%ADD11R,1.000000X0.700000*%
%ADD12RoundRect,0.243750X-0.243750X-0.456250X0.243750X-0.456250X0.243750X0.456250X-0.243750X0.456250X0*%
%ADD13RoundRect,0.250000X0.262500X0.450000X-0.262500X0.450000X-0.262500X-0.450000X0.262500X-0.450000X0*%
%ADD14RoundRect,0.243750X-0.456250X0.243750X-0.456250X-0.243750X0.456250X-0.243750X0.456250X0.243750X0*%
%ADD15RoundRect,0.150000X-0.587500X-0.150000X0.587500X-0.150000X0.587500X0.150000X-0.587500X0.150000X0*%
%ADD16R,0.700000X1.000000*%
%ADD17R,1.600000X3.000000*%
%ADD18R,5.800000X6.200000*%
%ADD19RoundRect,0.250000X0.450000X-0.262500X0.450000X0.262500X-0.450000X0.262500X-0.450000X-0.262500X0*%
%ADD20RoundRect,0.250000X-0.262500X-0.450000X0.262500X-0.450000X0.262500X0.450000X-0.262500X0.450000X0*%
%ADD21RoundRect,0.250000X-0.450000X0.262500X-0.450000X-0.262500X0.450000X-0.262500X0.450000X0.262500X0*%
%ADD22RoundRect,0.250000X-1.000000X-0.900000X1.000000X-0.900000X1.000000X0.900000X-1.000000X0.900000X0*%
%ADD23RoundRect,0.250000X-0.250000X-0.475000X0.250000X-0.475000X0.250000X0.475000X-0.250000X0.475000X0*%
%ADD24RoundRect,0.250000X0.250000X0.475000X-0.250000X0.475000X-0.250000X-0.475000X0.250000X-0.475000X0*%
G04 APERTURE END LIST*
D10*
X136677500Y-138780000D03*
X134802500Y-138780000D03*
D11*
X75210000Y-141080000D03*
X77550000Y-141080000D03*
D12*
X103330000Y-131000000D03*
X105205000Y-131000000D03*
D13*
X143362895Y-138780328D03*
X141537895Y-138780328D03*
X73292500Y-139080000D03*
X71467500Y-139080000D03*
X73325000Y-134000000D03*
X71500000Y-134000000D03*
D14*
X100562500Y-73062500D03*
X100562500Y-74937500D03*
D11*
X134507500Y-141780000D03*
X136847500Y-141780000D03*
D15*
X76625000Y-132137500D03*
X76625000Y-134037500D03*
X78500000Y-133087500D03*
D10*
X149387895Y-138780328D03*
X147512895Y-138780328D03*
D16*
X153911697Y-144743821D03*
X153911697Y-147083821D03*
D17*
X128220000Y-74000000D03*
D18*
X130500000Y-67160000D03*
D17*
X132780000Y-74000000D03*
D19*
X79500000Y-69700000D03*
X79500000Y-67875000D03*
D20*
X84737500Y-130000000D03*
X86562500Y-130000000D03*
D14*
X68500000Y-73125000D03*
X68500000Y-75000000D03*
D13*
X105912500Y-138822500D03*
X104087500Y-138822500D03*
X88497328Y-137975338D03*
X86672328Y-137975338D03*
D19*
X90500000Y-70000000D03*
X90500000Y-68175000D03*
D11*
X105500000Y-129000000D03*
X103160000Y-129000000D03*
D21*
X128500000Y-78175000D03*
X128500000Y-80000000D03*
D13*
X90000000Y-167080000D03*
X88175000Y-167080000D03*
D14*
X110500000Y-73125000D03*
X110500000Y-75000000D03*
X79500000Y-73000000D03*
X79500000Y-74875000D03*
D11*
X84670000Y-128000000D03*
X82330000Y-128000000D03*
X90330000Y-141080000D03*
X92670000Y-141080000D03*
D10*
X123584188Y-138756259D03*
X121709188Y-138756259D03*
D11*
X130017500Y-141921655D03*
X127677500Y-141921655D03*
D19*
X110500000Y-69912500D03*
X110500000Y-68087500D03*
D13*
X160824197Y-138743821D03*
X158999197Y-138743821D03*
D10*
X77380000Y-138080000D03*
X75505000Y-138080000D03*
D13*
X100537500Y-131000000D03*
X98712500Y-131000000D03*
D10*
X92437500Y-138080000D03*
X90562500Y-138080000D03*
D22*
X138700000Y-83000000D03*
X143000000Y-83000000D03*
D11*
X121507500Y-141780000D03*
X123847500Y-141780000D03*
D13*
X118590000Y-138780000D03*
X116765000Y-138780000D03*
D19*
X68500000Y-69912500D03*
X68500000Y-68087500D03*
D10*
X110937500Y-138822500D03*
X109062500Y-138822500D03*
X165849197Y-138743821D03*
X163974197Y-138743821D03*
D19*
X100500000Y-69912500D03*
X100500000Y-68087500D03*
D11*
X146280395Y-141780328D03*
X148620395Y-141780328D03*
D13*
X89912500Y-165080000D03*
X88087500Y-165080000D03*
D12*
X80562500Y-130000000D03*
X82437500Y-130000000D03*
D23*
X63600000Y-110500000D03*
X65500000Y-110500000D03*
D11*
X121670000Y-91000000D03*
X119330000Y-91000000D03*
D24*
X128500000Y-87000000D03*
X126600000Y-87000000D03*
D11*
X107830000Y-141822500D03*
X110170000Y-141822500D03*
D20*
X71675000Y-131000000D03*
X73500000Y-131000000D03*
D14*
X90500000Y-73125000D03*
X90500000Y-75000000D03*
D11*
X163741697Y-141743821D03*
X166081697Y-141743821D03*
D13*
X132590000Y-138780000D03*
X130765000Y-138780000D03*
M02*
